<svg width="43" height="48" viewBox="0 0 43 48" fill="none" xmlns="http://www.w3.org/2000/svg">
<path d="M41.8591 31.3212L28.8297 24L41.8591 16.6788C42.9398 16.0716 43.3214 14.674 42.7049 13.5816L40.9202 10.4183C40.3037 9.32587 38.9301 8.96531 37.8759 9.61931L25.1648 17.5048L25.4832 2.29819C25.5096 1.03697 24.5177 0 23.2848 0H19.7152C18.4824 0 17.4904 1.03697 17.5169 2.29819L17.8352 17.5048L5.12413 9.61941C4.06994 8.96541 2.69627 9.32597 2.07984 10.4184L0.295069 13.5817C-0.321357 14.6741 0.0603362 16.0717 1.14101 16.6789L14.1703 24L1.14091 31.3212C0.0602448 31.9284 -0.321448 33.326 0.295069 34.4184L2.07984 37.5817C2.69627 38.6741 4.06994 39.0347 5.12413 38.3807L17.8352 30.4952L17.5168 45.7018C17.4904 46.963 18.4824 48 19.7152 48H23.2849C24.5177 48 25.5097 46.963 25.4833 45.7018L25.1648 30.4952L37.8759 38.3806C38.9301 39.0346 40.3037 38.674 40.9202 37.5816L42.7049 34.4183C43.3214 33.3259 42.9398 31.9284 41.8591 31.3212Z" fill="#00D3D4"/>
</svg>
