<svg width="61" height="48" viewBox="0 0 61 48" fill="none" xmlns="http://www.w3.org/2000/svg">
<path d="M44.0783 17.1429C44.0783 7.67464 34.2862 0 22.2058 0C10.1255 0 0.333313 7.67464 0.333313 17.1429C0.333313 20.8146 1.81917 24.2089 4.3261 26.9979C2.92121 30.2379 0.598307 32.8029 0.564657 32.8393C0.451428 32.9608 0.375657 33.1135 0.346726 33.2784C0.317794 33.4433 0.336972 33.6133 0.401885 33.7673C0.466798 33.9212 0.574596 34.0524 0.711933 34.1445C0.849271 34.2367 1.01012 34.2858 1.17456 34.2857C5.02118 34.2857 8.21267 32.9732 10.5051 31.6093C13.8911 33.2957 17.8965 34.2857 22.2058 34.2857C34.2862 34.2857 44.0783 26.6111 44.0783 17.1429ZM20.5233 27.4286V25.6832C19.3361 25.6211 18.1815 25.1989 17.2246 24.4671C16.8145 24.1532 16.7934 23.5275 17.1646 23.1664L18.4002 21.9654C18.6915 21.6825 19.1247 21.6696 19.4654 21.8871C19.8724 22.1464 20.334 22.2857 20.8135 22.2857H23.7695C24.453 22.2857 25.0103 21.6514 25.0103 20.8725C25.0103 20.235 24.6307 19.6736 24.0881 19.5086L19.3561 18.0621C17.4012 17.4643 16.0352 15.5529 16.0352 13.4132C16.0352 10.7861 18.0385 8.65179 20.5223 8.58429V6.85714C20.5223 6.38357 20.8987 6 21.3635 6H23.046C23.5108 6 23.8873 6.38357 23.8873 6.85714V8.6025C25.0745 8.66464 26.2291 9.08571 27.186 9.81857C27.5961 10.1325 27.6172 10.7582 27.246 11.1193L26.0104 12.3204C25.7191 12.6032 25.2858 12.6161 24.9451 12.3986C24.5382 12.1382 24.0765 12 23.597 12H20.6411C19.9576 12 19.4002 12.6343 19.4002 13.4132C19.4002 14.0507 19.7799 14.6121 20.3225 14.7771L25.0545 16.2236C27.0093 16.8214 28.3753 18.7329 28.3753 20.8725C28.3753 23.5007 26.3721 25.6339 23.8883 25.7014V27.4286C23.8883 27.9021 23.5119 28.2857 23.0471 28.2857H21.3646C20.8998 28.2857 20.5233 27.9021 20.5233 27.4286ZM56.9084 40.7132C59.4174 37.9243 60.9033 34.5289 60.9033 30.8571C60.9033 23.685 55.2785 17.55 47.3035 14.9925C47.3939 15.6996 47.4433 16.4164 47.4433 17.1429C47.4433 28.4861 36.1222 37.7143 22.2058 37.7143C21.0722 37.7143 19.9639 37.6318 18.8692 37.5129C22.1848 43.6746 29.9632 48 39.0308 48C43.3401 48 47.3455 47.01 50.7315 45.3236C53.0239 46.6875 56.2154 48 60.0621 48C60.3986 48 60.7025 47.7954 60.8339 47.4814C60.9675 47.1664 60.9033 46.8021 60.6709 46.5525C60.6383 46.5171 58.3133 43.9554 56.9084 40.7132Z" fill="#00D3D4"/>
</svg>
