<svg width="78" height="66" viewBox="0 0 78 66" fill="none" xmlns="http://www.w3.org/2000/svg">
<path d="M17.8829 66C11.922 66 7.41951 63.8319 4.37561 59.4957C1.45854 55.0319 0 48.8463 0 40.9391C0 31.8841 2.21951 23.913 6.65854 17.0261C11.0975 10.1391 17.8829 4.46377 27.0146 0L33.1024 12.2435C27.3951 15.1768 23.0829 18.5565 20.1659 22.3826C17.3756 26.0811 15.9805 30.8 15.9805 36.5391C16.361 36.4116 16.9951 36.3478 17.8829 36.3478C21.9414 36.3478 25.3658 37.6232 28.1561 40.1739C31.0731 42.5971 32.5317 45.9768 32.5317 50.313C32.5317 55.1594 31.1366 58.9855 28.3463 61.7913C25.5561 64.5971 22.0683 66 17.8829 66ZM62.7805 66C56.8195 66 52.3171 63.8319 49.2732 59.4957C46.3561 55.0319 44.8976 48.8463 44.8976 40.9391C44.8976 31.8841 47.1171 23.913 51.5561 17.0261C55.9951 10.1391 62.7805 4.46377 71.9122 0L78 12.2435C72.2927 15.1768 67.9805 18.5565 65.0634 22.3826C62.2731 26.0811 60.8781 30.8 60.8781 36.5391C61.2585 36.4116 61.8927 36.3478 62.7805 36.3478C66.839 36.3478 70.2634 37.6232 73.0537 40.1739C75.9707 42.5971 77.4293 45.9768 77.4293 50.313C77.4293 55.1594 76.0342 58.9855 73.2439 61.7913C70.4536 64.5971 66.9659 66 62.7805 66Z" fill="#00D3D4"/>
</svg>
