<svg width="42" height="48" viewBox="0 0 42 48" fill="none" xmlns="http://www.w3.org/2000/svg">
<path d="M21.1665 48C24.399 48 27.0209 45.3141 27.0209 42H15.3122C15.3122 45.3141 17.9341 48 21.1665 48ZM40.8785 33.9647C39.1104 32.0184 35.802 29.0906 35.802 19.5C35.802 12.2156 30.8162 6.38438 24.0933 4.95375V3C24.0933 1.34344 22.7827 0 21.1665 0C19.5503 0 18.2398 1.34344 18.2398 3V4.95375C11.5169 6.38438 6.53106 12.2156 6.53106 19.5C6.53106 29.0906 3.2227 32.0184 1.45458 33.9647C0.905474 34.5694 0.662037 35.2922 0.666613 36C0.67668 37.5375 1.85451 39 3.60433 39H38.7288C40.4786 39 41.6573 37.5375 41.6665 36C41.6711 35.2922 41.4276 34.5684 40.8785 33.9647Z" fill="#00D3D4"/>
</svg>
