<svg width="242" height="345" viewBox="0 0 242 345" fill="none" xmlns="http://www.w3.org/2000/svg">
<g clip-path="url(#clip0_26_289)">
<path d="M233.469 0H8.53069C3.81932 0 0 3.82349 0 8.54V336.46C0 341.177 3.81932 345 8.53069 345H233.469C238.181 345 242 341.177 242 336.46V8.54C242 3.82349 238.181 0 233.469 0Z" fill="url(#paint0_radial_26_289)"/>
<path d="M233.108 0.822998H8.89328C4.43568 0.822998 0.822083 4.44054 0.822083 8.903V336.116C0.822083 340.578 4.43568 344.196 8.89328 344.196H233.108C237.565 344.196 241.179 340.578 241.179 336.116V8.903C241.179 4.44054 237.565 0.822998 233.108 0.822998Z" fill="url(#paint1_radial_26_289)"/>
<path d="M233.108 0.822998H8.89328C4.43568 0.822998 0.822083 4.44054 0.822083 8.903V336.116C0.822083 340.578 4.43568 344.196 8.89328 344.196H233.108C237.565 344.196 241.179 340.578 241.179 336.116V8.903C241.179 4.44054 237.565 0.822998 233.108 0.822998Z" fill="url(#paint2_radial_26_289)"/>
<path d="M232.193 2.86108H9.79035C5.96167 2.86108 2.85791 5.96823 2.85791 9.80108V335.199C2.85791 339.032 5.96167 342.139 9.79035 342.139H232.193C236.021 342.139 239.125 339.032 239.125 335.199V9.80108C239.125 5.96823 236.021 2.86108 232.193 2.86108Z" fill="#231F20"/>
<path d="M226.246 30.6831H15.4851V313.834H226.246V30.6831Z" fill="url(#paint3_radial_26_289)"/>
<path d="M114.311 332.234C115.045 333.222 115.985 334.038 117.066 334.625C118.147 335.212 119.343 335.556 120.57 335.634C121.797 335.711 123.027 335.52 124.173 335.074C125.319 334.628 126.354 333.937 127.206 333.049C128.059 332.162 128.708 331.099 129.108 329.935C129.508 328.771 129.651 327.534 129.525 326.309C129.399 325.085 129.009 323.902 128.38 322.844C127.752 321.786 126.9 320.878 125.886 320.182C125.886 320.182 126.618 324.634 124.331 326.548C122.045 328.462 119.759 326.065 117.829 326.065C115.9 326.065 112.794 328.085 114.311 332.234Z" fill="url(#paint4_linear_26_289)"/>
<path opacity="0.3" d="M120.992 331.714C120.155 331.714 119.336 331.465 118.64 331C117.944 330.534 117.401 329.872 117.081 329.098C116.76 328.323 116.677 327.471 116.84 326.649C117.003 325.827 117.406 325.072 117.999 324.479C118.591 323.887 119.345 323.483 120.166 323.319C120.987 323.156 121.838 323.24 122.612 323.561C123.386 323.881 124.047 324.425 124.512 325.122C124.977 325.818 125.225 326.638 125.225 327.476C125.225 328.6 124.779 329.678 123.985 330.473C123.192 331.268 122.115 331.714 120.992 331.714ZM120.992 324.133C120.331 324.133 119.686 324.329 119.136 324.697C118.587 325.064 118.159 325.586 117.906 326.197C117.653 326.808 117.587 327.481 117.716 328.129C117.845 328.778 118.163 329.374 118.63 329.842C119.097 330.309 119.692 330.628 120.34 330.757C120.988 330.886 121.66 330.82 122.27 330.566C122.881 330.313 123.402 329.885 123.769 329.335C124.136 328.785 124.332 328.138 124.332 327.477C124.332 326.59 123.98 325.74 123.354 325.112C122.728 324.485 121.878 324.133 120.992 324.133Z" fill="white"/>
<path opacity="0.2" d="M171.288 2.86108H15.2534C11.9773 2.88638 8.84232 4.199 6.52377 6.51615C4.20523 8.8333 2.88872 11.9695 2.85791 15.2491V329.749C2.86109 333.037 4.16873 336.19 6.49324 338.513C8.81776 340.836 11.9688 342.139 15.2534 342.137H70.623L171.288 2.86108Z" fill="url(#paint5_radial_26_289)"/>
<path d="M225.879 30.6121H15.9825V313.261H225.879V30.6121Z" fill="white"/>
<path d="M225.879 30.6121H15.9825V55.7371H225.879V30.6121Z" fill="#029FA0"/>
<path d="M222.832 119.358H19.0542V120.358H222.832V119.358Z" fill="#EBEBEB"/>
<path d="M222.832 146.358H19.0542V147.358H222.832V146.358Z" fill="#EBEBEB"/>
<path d="M222.832 173.358H19.0542V174.358H222.832V173.358Z" fill="#EBEBEB"/>
<path d="M222.832 200.358H19.0542V201.358H222.832V200.358Z" fill="#EBEBEB"/>
<path d="M222.832 227.358H19.0542V228.358H222.832V227.358Z" fill="#EBEBEB"/>
<path d="M222.832 254.358H19.0542V255.358H222.832V254.358Z" fill="#EBEBEB"/>
<path d="M222.832 281.358H19.0542V282.358H222.832V281.358Z" fill="#EBEBEB"/>
<path d="M180.803 272.033H215.765V268.033H180.803V272.033Z" fill="#C5C6CB"/>
<path d="M184.798 299.033H215.765V295.033H184.798V299.033Z" fill="#C5C6CB"/>
<path d="M185.797 218.033H215.765V214.033H185.797V218.033Z" fill="#C5C6CB"/>
<path d="M182.801 164.033H215.765V160.033H182.801V164.033Z" fill="#C5C6CB"/>
<path d="M184.798 245.033H215.765V241.033H184.798V245.033Z" fill="#C5C6CB"/>
<path d="M191.791 191.033H215.765V187.033H191.791V191.033Z" fill="#C5C6CB"/>
<path d="M187.795 137.033H215.765V133.033H187.795V137.033Z" fill="#C5C6CB"/>
<path d="M92.8987 128.033H26.9706V132.033H92.8987V128.033Z" fill="#C5C6CB"/>
<path d="M81.9106 136.033H26.9706V140.033H81.9106V136.033Z" fill="#C5C6CB"/>
<path d="M81.9106 182.033H26.9706V186.033H81.9106V182.033Z" fill="#C5C6CB"/>
<path d="M72.9205 190.033H26.9706V194.033H72.9205V190.033Z" fill="#C5C6CB"/>
<path d="M87.9041 236.033H26.9706V240.033H87.9041V236.033Z" fill="#C5C6CB"/>
<path d="M77.915 244.033H26.9706V248.033H77.915V244.033Z" fill="#C5C6CB"/>
<path d="M84.9074 155.033H26.9706V159.033H84.9074V155.033Z" fill="#C5C6CB"/>
<path d="M74.9183 163.033H26.9706V167.033H74.9183V163.033Z" fill="#C5C6CB"/>
<path d="M72.9205 209.033H26.9706V213.033H72.9205V209.033Z" fill="#C5C6CB"/>
<path d="M64.9292 217.033H26.9706V221.033H64.9292V217.033Z" fill="#C5C6CB"/>
<path d="M78.9139 263.033H26.9706V267.033H78.9139V263.033Z" fill="#C5C6CB"/>
<path d="M87.9041 290.033H26.9706V294.033H87.9041V290.033Z" fill="#C5C6CB"/>
<path d="M69.9237 271.033H26.9706V275.033H69.9237V271.033Z" fill="#C5C6CB"/>
<path d="M79.9128 298.033H26.9706V302.033H79.9128V298.033Z" fill="#C5C6CB"/>
<path d="M178.361 140.793V139.209C177.849 139.156 177.353 139.017 176.873 138.793C176.393 138.558 175.983 138.286 175.641 137.977L176.249 137.065C176.591 137.364 176.964 137.62 177.369 137.833C177.785 138.036 178.239 138.137 178.729 138.137C179.327 138.137 179.769 137.988 180.057 137.689C180.356 137.38 180.505 136.98 180.505 136.489C180.505 136.052 180.399 135.694 180.185 135.417C179.972 135.14 179.695 134.9 179.353 134.697C179.012 134.494 178.649 134.302 178.265 134.121C177.892 133.929 177.535 133.721 177.193 133.497C176.852 133.262 176.575 132.974 176.361 132.633C176.148 132.292 176.041 131.86 176.041 131.337C176.041 130.622 176.255 130.03 176.681 129.561C177.108 129.081 177.668 128.788 178.361 128.681V127.065H179.321V128.649C179.833 128.702 180.265 128.841 180.617 129.065C180.98 129.289 181.305 129.556 181.593 129.865L180.889 130.649C180.591 130.361 180.297 130.137 180.009 129.977C179.732 129.817 179.375 129.737 178.937 129.737C178.447 129.737 178.057 129.876 177.769 130.153C177.481 130.43 177.337 130.804 177.337 131.273C177.337 131.657 177.444 131.977 177.657 132.233C177.871 132.478 178.148 132.692 178.489 132.873C178.831 133.054 179.188 133.236 179.561 133.417C179.945 133.598 180.308 133.812 180.649 134.057C180.991 134.292 181.268 134.596 181.481 134.969C181.695 135.342 181.801 135.817 181.801 136.393C181.801 137.15 181.577 137.78 181.129 138.281C180.681 138.772 180.079 139.07 179.321 139.177V140.793H178.361Z" fill="#C5C6CB"/>
<path d="M174.366 167.793V166.209C173.854 166.156 173.358 166.017 172.878 165.793C172.398 165.558 171.987 165.286 171.646 164.977L172.254 164.065C172.595 164.364 172.968 164.62 173.374 164.833C173.79 165.036 174.243 165.137 174.734 165.137C175.331 165.137 175.774 164.988 176.062 164.689C176.36 164.38 176.51 163.98 176.51 163.489C176.51 163.052 176.403 162.694 176.19 162.417C175.976 162.14 175.699 161.9 175.358 161.697C175.016 161.494 174.654 161.302 174.27 161.121C173.896 160.929 173.539 160.721 173.198 160.497C172.856 160.262 172.579 159.974 172.366 159.633C172.152 159.292 172.046 158.86 172.046 158.337C172.046 157.622 172.259 157.03 172.686 156.561C173.112 156.081 173.672 155.788 174.366 155.681V154.065H175.326V155.649C175.838 155.702 176.27 155.841 176.622 156.065C176.984 156.289 177.31 156.556 177.598 156.865L176.894 157.649C176.595 157.361 176.302 157.137 176.014 156.977C175.736 156.817 175.379 156.737 174.942 156.737C174.451 156.737 174.062 156.876 173.774 157.153C173.486 157.43 173.342 157.804 173.342 158.273C173.342 158.657 173.448 158.977 173.662 159.233C173.875 159.478 174.152 159.692 174.494 159.873C174.835 160.054 175.192 160.236 175.566 160.417C175.95 160.598 176.312 160.812 176.654 161.057C176.995 161.292 177.272 161.596 177.486 161.969C177.699 162.342 177.806 162.817 177.806 163.393C177.806 164.15 177.582 164.78 177.134 165.281C176.686 165.772 176.083 166.07 175.326 166.177V167.793H174.366Z" fill="#C5C6CB"/>
<path d="M182.357 194.793V193.209C181.845 193.156 181.349 193.017 180.869 192.793C180.389 192.558 179.978 192.286 179.637 191.977L180.245 191.065C180.586 191.364 180.96 191.62 181.365 191.833C181.781 192.036 182.234 192.137 182.725 192.137C183.322 192.137 183.765 191.988 184.053 191.689C184.352 191.38 184.501 190.98 184.501 190.489C184.501 190.052 184.394 189.694 184.181 189.417C183.968 189.14 183.69 188.9 183.349 188.697C183.008 188.494 182.645 188.302 182.261 188.121C181.888 187.929 181.53 187.721 181.189 187.497C180.848 187.262 180.57 186.974 180.357 186.633C180.144 186.292 180.037 185.86 180.037 185.337C180.037 184.622 180.25 184.03 180.677 183.561C181.104 183.081 181.664 182.788 182.357 182.681V181.065H183.317V182.649C183.829 182.702 184.261 182.841 184.613 183.065C184.976 183.289 185.301 183.556 185.589 183.865L184.885 184.649C184.586 184.361 184.293 184.137 184.005 183.977C183.728 183.817 183.37 183.737 182.933 183.737C182.442 183.737 182.053 183.876 181.765 184.153C181.477 184.43 181.333 184.804 181.333 185.273C181.333 185.657 181.44 185.977 181.653 186.233C181.866 186.478 182.144 186.692 182.485 186.873C182.826 187.054 183.184 187.236 183.557 187.417C183.941 187.598 184.304 187.812 184.645 188.057C184.986 188.292 185.264 188.596 185.477 188.969C185.69 189.342 185.797 189.817 185.797 190.393C185.797 191.15 185.573 191.78 185.125 192.281C184.677 192.772 184.074 193.07 183.317 193.177V194.793H182.357Z" fill="#C5C6CB"/>
<path d="M176.363 221.793V220.209C175.851 220.156 175.355 220.017 174.875 219.793C174.395 219.558 173.985 219.286 173.643 218.977L174.251 218.065C174.593 218.364 174.966 218.62 175.371 218.833C175.787 219.036 176.241 219.137 176.731 219.137C177.329 219.137 177.771 218.988 178.059 218.689C178.358 218.38 178.507 217.98 178.507 217.489C178.507 217.052 178.401 216.694 178.187 216.417C177.974 216.14 177.697 215.9 177.355 215.697C177.014 215.494 176.651 215.302 176.267 215.121C175.894 214.929 175.537 214.721 175.195 214.497C174.854 214.262 174.577 213.974 174.363 213.633C174.15 213.292 174.043 212.86 174.043 212.337C174.043 211.622 174.257 211.03 174.683 210.561C175.11 210.081 175.67 209.788 176.363 209.681V208.065H177.323V209.649C177.835 209.702 178.267 209.841 178.619 210.065C178.982 210.289 179.307 210.556 179.595 210.865L178.891 211.649C178.593 211.361 178.299 211.137 178.011 210.977C177.734 210.817 177.377 210.737 176.939 210.737C176.449 210.737 176.059 210.876 175.771 211.153C175.483 211.43 175.339 211.804 175.339 212.273C175.339 212.657 175.446 212.977 175.659 213.233C175.873 213.478 176.15 213.692 176.491 213.873C176.833 214.054 177.19 214.236 177.563 214.417C177.947 214.598 178.31 214.812 178.651 215.057C178.993 215.292 179.27 215.596 179.483 215.969C179.697 216.342 179.803 216.817 179.803 217.393C179.803 218.15 179.579 218.78 179.131 219.281C178.683 219.772 178.081 220.07 177.323 220.177V221.793H176.363Z" fill="#C5C6CB"/>
<path d="M175.365 248.793V247.209C174.853 247.156 174.357 247.017 173.877 246.793C173.397 246.558 172.986 246.286 172.645 245.977L173.253 245.065C173.594 245.364 173.967 245.62 174.373 245.833C174.789 246.036 175.242 246.137 175.733 246.137C176.33 246.137 176.773 245.988 177.061 245.689C177.359 245.38 177.509 244.98 177.509 244.489C177.509 244.052 177.402 243.694 177.189 243.417C176.975 243.14 176.698 242.9 176.357 242.697C176.015 242.494 175.653 242.302 175.269 242.121C174.895 241.929 174.538 241.721 174.197 241.497C173.855 241.262 173.578 240.974 173.365 240.633C173.151 240.292 173.045 239.86 173.045 239.337C173.045 238.622 173.258 238.03 173.685 237.561C174.111 237.081 174.671 236.788 175.365 236.681V235.065H176.325V236.649C176.837 236.702 177.269 236.841 177.621 237.065C177.983 237.289 178.309 237.556 178.597 237.865L177.893 238.649C177.594 238.361 177.301 238.137 177.013 237.977C176.735 237.817 176.378 237.737 175.941 237.737C175.45 237.737 175.061 237.876 174.773 238.153C174.485 238.43 174.341 238.804 174.341 239.273C174.341 239.657 174.447 239.977 174.661 240.233C174.874 240.478 175.151 240.692 175.493 240.873C175.834 241.054 176.191 241.236 176.565 241.417C176.949 241.598 177.311 241.812 177.653 242.057C177.994 242.292 178.271 242.596 178.485 242.969C178.698 243.342 178.805 243.817 178.805 244.393C178.805 245.15 178.581 245.78 178.133 246.281C177.685 246.772 177.082 247.07 176.325 247.177V248.793H175.365Z" fill="#C5C6CB"/>
<path d="M171.369 275.793V274.209C170.857 274.156 170.361 274.017 169.881 273.793C169.401 273.558 168.99 273.286 168.649 272.977L169.257 272.065C169.598 272.364 169.972 272.62 170.377 272.833C170.793 273.036 171.246 273.137 171.737 273.137C172.334 273.137 172.777 272.988 173.065 272.689C173.364 272.38 173.513 271.98 173.513 271.489C173.513 271.052 173.406 270.694 173.193 270.417C172.98 270.14 172.702 269.9 172.361 269.697C172.02 269.494 171.657 269.302 171.273 269.121C170.9 268.929 170.542 268.721 170.201 268.497C169.86 268.262 169.582 267.974 169.369 267.633C169.156 267.292 169.049 266.86 169.049 266.337C169.049 265.622 169.262 265.03 169.689 264.561C170.116 264.081 170.676 263.788 171.369 263.681V262.065H172.329V263.649C172.841 263.702 173.273 263.841 173.625 264.065C173.988 264.289 174.313 264.556 174.601 264.865L173.897 265.649C173.598 265.361 173.305 265.137 173.017 264.977C172.74 264.817 172.382 264.737 171.945 264.737C171.454 264.737 171.065 264.876 170.777 265.153C170.489 265.43 170.345 265.804 170.345 266.273C170.345 266.657 170.452 266.977 170.665 267.233C170.878 267.478 171.156 267.692 171.497 267.873C171.838 268.054 172.196 268.236 172.569 268.417C172.953 268.598 173.316 268.812 173.657 269.057C173.998 269.292 174.276 269.596 174.489 269.969C174.702 270.342 174.809 270.817 174.809 271.393C174.809 272.15 174.585 272.78 174.137 273.281C173.689 273.772 173.086 274.07 172.329 274.177V275.793H171.369Z" fill="#C5C6CB"/>
<path d="M174.366 302.793V301.209C173.854 301.156 173.358 301.017 172.878 300.793C172.398 300.558 171.987 300.286 171.646 299.977L172.254 299.065C172.595 299.364 172.968 299.62 173.374 299.833C173.79 300.036 174.243 300.137 174.734 300.137C175.331 300.137 175.774 299.988 176.062 299.689C176.36 299.38 176.51 298.98 176.51 298.489C176.51 298.052 176.403 297.694 176.19 297.417C175.976 297.14 175.699 296.9 175.358 296.697C175.016 296.494 174.654 296.302 174.27 296.121C173.896 295.929 173.539 295.721 173.198 295.497C172.856 295.262 172.579 294.974 172.366 294.633C172.152 294.292 172.046 293.86 172.046 293.337C172.046 292.622 172.259 292.03 172.686 291.561C173.112 291.081 173.672 290.788 174.366 290.681V289.065H175.326V290.649C175.838 290.702 176.27 290.841 176.622 291.065C176.984 291.289 177.31 291.556 177.598 291.865L176.894 292.649C176.595 292.361 176.302 292.137 176.014 291.977C175.736 291.817 175.379 291.737 174.942 291.737C174.451 291.737 174.062 291.876 173.774 292.153C173.486 292.43 173.342 292.804 173.342 293.273C173.342 293.657 173.448 293.977 173.662 294.233C173.875 294.478 174.152 294.692 174.494 294.873C174.835 295.054 175.192 295.236 175.566 295.417C175.95 295.598 176.312 295.812 176.654 296.057C176.995 296.292 177.272 296.596 177.486 296.969C177.699 297.342 177.806 297.817 177.806 298.393C177.806 299.15 177.582 299.78 177.134 300.281C176.686 300.772 176.083 301.07 175.326 301.177V302.793H174.366Z" fill="#C5C6CB"/>
<path d="M213.767 73.5161H177.806C176.703 73.5161 175.808 74.4115 175.808 75.5161V95.5161C175.808 96.6207 176.703 97.5161 177.806 97.5161H213.767C214.87 97.5161 215.765 96.6207 215.765 95.5161V75.5161C215.765 74.4115 214.87 73.5161 213.767 73.5161Z" fill="#92A1FF"/>
<path d="M215.765 77.5161H175.808V80.5161H215.765V77.5161Z" fill="#F2F4FF"/>
<path d="M184.798 83.5161H177.806V84.5161H184.798V83.5161Z" fill="#F2F4FF"/>
<path d="M186.796 85.5161H177.806V86.5161H186.796V85.5161Z" fill="#F2F4FF"/>
<path d="M184.798 87.5161H177.806V88.5161H184.798V87.5161Z" fill="#F2F4FF"/>
<path d="M120.868 73.5151H26.9706V80.5151H120.868V73.5151Z" fill="#C5C6CB"/>
<path d="M120.868 88.5151H26.9706V91.5151H120.868V88.5151Z" fill="#C5C6CB"/>
<path d="M127.861 93.5151H26.9706V96.5151H127.861V93.5151Z" fill="#C5C6CB"/>
<path d="M125.863 98.5151H26.9706V101.515H125.863V98.5151Z" fill="#C5C6CB"/>
<path d="M201.78 38.1121H220.759" stroke="white" stroke-width="2"/>
<path d="M201.78 43.1121H220.759" stroke="white" stroke-width="2"/>
<path d="M201.78 48.1121H220.759" stroke="white" stroke-width="2"/>
<path d="M25.9886 46.562V37.8347H28.2954V39.3745H28.3977C28.5795 38.8631 28.8826 38.4597 29.3068 38.1643C29.731 37.8688 30.2386 37.7211 30.8295 37.7211C31.428 37.7211 31.9375 37.8707 32.3579 38.17C32.7784 38.4654 33.0587 38.8669 33.1988 39.3745H33.2898C33.4678 38.8745 33.7898 38.4749 34.2557 38.1756C34.7254 37.8726 35.2803 37.7211 35.9204 37.7211C36.7348 37.7211 37.3958 37.9806 37.9034 38.4995C38.4148 39.0147 38.6704 39.7457 38.6704 40.6927V46.562H36.2557V41.17C36.2557 40.6851 36.1269 40.3215 35.8693 40.0791C35.6117 39.8366 35.2898 39.7154 34.9034 39.7154C34.464 39.7154 34.1212 39.8556 33.875 40.1359C33.6288 40.4124 33.5057 40.7779 33.5057 41.2325V46.562H31.1591V41.1188C31.1591 40.6908 31.036 40.3499 30.7898 40.0961C30.5473 39.8423 30.2273 39.7154 29.8295 39.7154C29.5606 39.7154 29.3182 39.7836 29.1023 39.92C28.8901 40.0525 28.7216 40.24 28.5966 40.4825C28.4716 40.7211 28.4091 41.0014 28.4091 41.3234V46.562H25.9886ZM41.7642 49.8347C41.4574 49.8347 41.1695 49.8101 40.9005 49.7609C40.6354 49.7154 40.4157 49.6567 40.2415 49.5847L40.7869 47.7779C41.071 47.865 41.3267 47.9124 41.554 47.92C41.785 47.9275 41.9839 47.8745 42.1505 47.7609C42.321 47.6472 42.4593 47.4541 42.5653 47.1813L42.7074 46.812L39.5767 37.8347H42.1221L43.929 44.2438H44.0199L45.8437 37.8347H48.4062L45.0142 47.5052C44.8513 47.9749 44.6297 48.384 44.3494 48.7325C44.0729 49.0847 43.7225 49.3556 43.2983 49.545C42.874 49.7381 42.3627 49.8347 41.7642 49.8347ZM54.2869 37.8347V39.6529H49.0312V37.8347H54.2869ZM50.2244 35.7438H52.6449V43.8802C52.6449 44.1037 52.679 44.2779 52.7471 44.4029C52.8153 44.5241 52.91 44.6094 53.0312 44.6586C53.1562 44.7078 53.3002 44.7325 53.463 44.7325C53.5767 44.7325 53.6903 44.723 53.804 44.7041C53.9176 44.6813 54.0047 44.6643 54.0653 44.6529L54.446 46.4541C54.3248 46.4919 54.1543 46.5355 53.9346 46.5847C53.7149 46.6378 53.4479 46.67 53.1335 46.6813C52.5502 46.7041 52.0388 46.6264 51.5994 46.4484C51.1638 46.2703 50.8248 45.9938 50.5824 45.6188C50.3399 45.2438 50.2206 44.7703 50.2244 44.1984V35.7438ZM58.4716 41.5166V46.562H56.0511V34.9256H58.4034V39.3745H58.5057C58.7026 38.8594 59.0208 38.456 59.4602 38.1643C59.8996 37.8688 60.4507 37.7211 61.1136 37.7211C61.7197 37.7211 62.2481 37.8537 62.6988 38.1188C63.1534 38.3802 63.5057 38.7571 63.7557 39.2495C64.0094 39.7381 64.1344 40.3234 64.1307 41.0052V46.562H61.7102V41.437C61.714 40.8991 61.5776 40.4806 61.3011 40.1813C61.0284 39.8821 60.6458 39.7325 60.1534 39.7325C59.8238 39.7325 59.5322 39.8025 59.2784 39.9427C59.0284 40.0828 58.8314 40.2874 58.6875 40.5563C58.5473 40.8215 58.4754 41.1416 58.4716 41.5166ZM69.9787 46.7325C69.0961 46.7325 68.3328 46.545 67.6889 46.17C67.0487 45.7912 66.5544 45.2647 66.2059 44.5904C65.8575 43.9124 65.6832 43.1264 65.6832 42.2325C65.6832 41.331 65.8575 40.5431 66.2059 39.8688C66.5544 39.1908 67.0487 38.6643 67.6889 38.2893C68.3328 37.9105 69.0961 37.7211 69.9787 37.7211C70.8612 37.7211 71.6226 37.9105 72.2628 38.2893C72.9067 38.6643 73.4029 39.1908 73.7514 39.8688C74.0999 40.5431 74.2741 41.331 74.2741 42.2325C74.2741 43.1264 74.0999 43.9124 73.7514 44.5904C73.4029 45.2647 72.9067 45.7912 72.2628 46.17C71.6226 46.545 70.8612 46.7325 69.9787 46.7325ZM69.99 44.8575C70.3915 44.8575 70.7268 44.7438 70.9957 44.5166C71.2647 44.2855 71.4673 43.9711 71.6037 43.5734C71.7438 43.1756 71.8139 42.723 71.8139 42.2154C71.8139 41.7078 71.7438 41.2552 71.6037 40.8575C71.4673 40.4597 71.2647 40.1453 70.9957 39.9143C70.7268 39.6832 70.3915 39.5677 69.99 39.5677C69.5847 39.5677 69.2438 39.6832 68.9673 39.9143C68.6946 40.1453 68.4881 40.4597 68.348 40.8575C68.2116 41.2552 68.1434 41.7078 68.1434 42.2154C68.1434 42.723 68.2116 43.1756 68.348 43.5734C68.4881 43.9711 68.6946 44.2855 68.9673 44.5166C69.2438 44.7438 69.5847 44.8575 69.99 44.8575ZM83.1094 40.3234L80.8934 40.4597C80.8556 40.2703 80.7741 40.0999 80.6491 39.9484C80.5241 39.7931 80.3594 39.67 80.1548 39.5791C79.954 39.4844 79.7135 39.437 79.4332 39.437C79.0582 39.437 78.7419 39.5166 78.4844 39.6756C78.2268 39.831 78.098 40.0393 78.098 40.3006C78.098 40.509 78.1813 40.6851 78.348 40.8291C78.5147 40.973 78.8006 41.0885 79.2059 41.1756L80.7855 41.4938C81.634 41.6681 82.2665 41.9484 82.6832 42.3347C83.0999 42.7211 83.3082 43.2287 83.3082 43.8575C83.3082 44.4294 83.1397 44.9313 82.8025 45.3631C82.4692 45.795 82.0109 46.1321 81.4275 46.3745C80.848 46.6131 80.1794 46.7325 79.4219 46.7325C78.2665 46.7325 77.3461 46.4919 76.6605 46.0109C75.9787 45.526 75.579 44.8669 75.4616 44.0336L77.8423 43.9086C77.9143 44.2609 78.0885 44.5298 78.365 44.7154C78.6415 44.8972 78.9957 44.9881 79.4275 44.9881C79.8518 44.9881 80.1927 44.9067 80.4503 44.7438C80.7116 44.5772 80.8442 44.3631 80.848 44.1018C80.8442 43.8821 80.7514 43.7022 80.5696 43.562C80.3878 43.4181 80.1075 43.3082 79.7287 43.2325L78.2173 42.9313C77.365 42.7609 76.7306 42.4654 76.3139 42.045C75.901 41.6245 75.6946 41.0885 75.6946 40.437C75.6946 39.8764 75.8461 39.3935 76.1491 38.9881C76.4559 38.5828 76.8859 38.2703 77.4389 38.0506C77.9957 37.831 78.6472 37.7211 79.3934 37.7211C80.4957 37.7211 81.3631 37.9541 81.9957 38.42C82.6321 38.8859 83.0033 39.5203 83.1094 40.3234Z" fill="white"/>
</g>
<defs>
<radialGradient id="paint0_radial_26_289" cx="0" cy="0" r="1" gradientUnits="userSpaceOnUse" gradientTransform="translate(172.333 936.333) scale(193.597 1050.95)">
<stop offset="0.36" stop-color="#DAD8DB"/>
<stop offset="1" stop-color="#868686"/>
</radialGradient>
<radialGradient id="paint1_radial_26_289" cx="0" cy="0" r="1" gradientUnits="userSpaceOnUse" gradientTransform="translate(172.342 932.73) scale(92.3934 501.555)">
<stop stop-color="#DAD8DB"/>
<stop offset="0.19" stop-color="#D4D2D5"/>
<stop offset="0.44" stop-color="#C2C0C2"/>
<stop offset="0.75" stop-color="#A4A4A5"/>
<stop offset="1" stop-color="#868686"/>
</radialGradient>
<radialGradient id="paint2_radial_26_289" cx="0" cy="0" r="1" gradientUnits="userSpaceOnUse" gradientTransform="translate(172.342 932.73) scale(92.3934 501.555)">
<stop stop-color="#DAD8DB"/>
<stop offset="0.19" stop-color="#D4D2D5"/>
<stop offset="0.44" stop-color="#C2C0C2"/>
<stop offset="0.75" stop-color="#A4A4A5"/>
<stop offset="1" stop-color="#868686"/>
</radialGradient>
<radialGradient id="paint3_radial_26_289" cx="0" cy="0" r="1" gradientUnits="userSpaceOnUse" gradientTransform="translate(157.05 172.259) scale(189.36 189.145)">
<stop stop-color="#6E7072"/>
<stop offset="1" stop-color="#595C5D"/>
</radialGradient>
<linearGradient id="paint4_linear_26_289" x1="126.703" y1="336.347" x2="114.738" y2="316.492" gradientUnits="userSpaceOnUse">
<stop stop-color="#494143"/>
<stop offset="0.15" stop-color="#494143" stop-opacity="0.702"/>
<stop offset="0.39" stop-color="#494143" stop-opacity="0.322"/>
<stop offset="0.6" stop-color="#494143" stop-opacity="0.078"/>
<stop offset="0.76" stop-color="#494143" stop-opacity="0"/>
</linearGradient>
<radialGradient id="paint5_radial_26_289" cx="0" cy="0" r="1" gradientUnits="userSpaceOnUse" gradientTransform="translate(585.633 195.231) scale(346.686 346.401)">
<stop stop-color="white"/>
<stop offset="0.09" stop-color="white" stop-opacity="0.949"/>
<stop offset="0.25" stop-color="white" stop-opacity="0.831"/>
<stop offset="0.45" stop-color="white" stop-opacity="0.631"/>
<stop offset="0.7" stop-color="white" stop-opacity="0.361"/>
<stop offset="0.99" stop-color="white" stop-opacity="0.02"/>
<stop offset="1" stop-color="white" stop-opacity="0"/>
</radialGradient>
<clipPath id="clip0_26_289">
<rect width="242" height="345" fill="white"/>
</clipPath>
</defs>
</svg>
