<svg width="792" height="465" viewBox="0 0 792 465" fill="none" xmlns="http://www.w3.org/2000/svg">
<path d="M713.975 0H78.1096C71.6369 0 66.3897 5.22476 66.3897 11.6698V444.415C66.3897 450.86 71.6369 456.084 78.1096 456.084H713.975C720.448 456.084 725.695 450.86 725.695 444.415V11.6698C725.695 5.22476 720.448 0 713.975 0Z" fill="url(#paint0_radial_21_41)"/>
<path d="M711.189 5.05426H80.8956C75.6876 5.05426 71.4656 9.25814 71.4656 14.4439V441.639C71.4656 446.825 75.6876 451.029 80.8956 451.029H711.189C716.397 451.029 720.619 446.825 720.619 441.639V14.4439C720.619 9.25814 716.397 5.05426 711.189 5.05426Z" fill="#231F20"/>
<path d="M699.716 5.05426H92.3465C86.8033 5.06296 81.4898 7.26061 77.5717 11.1651C73.6536 15.0696 71.4509 20.3622 71.4466 25.8817V430.202C71.4509 435.721 73.6536 441.014 77.5717 444.918C81.4898 448.823 86.8033 451.02 92.3465 451.029H699.716C705.26 451.02 710.573 448.823 714.491 444.918C718.409 441.014 720.612 435.721 720.616 430.202V25.8817C720.612 20.3622 718.409 15.0696 714.491 11.1651C710.573 7.26061 705.26 5.06296 699.716 5.05426ZM718.07 430.202C718.071 432.602 717.597 434.98 716.675 437.198C715.753 439.416 714.401 441.432 712.697 443.13C710.993 444.828 708.969 446.176 706.742 447.095C704.515 448.015 702.127 448.488 699.716 448.489H92.3465C87.479 448.482 82.8131 446.552 79.3723 443.124C75.9315 439.695 73.9969 435.048 73.9926 430.202V25.8817C73.9969 21.035 75.9315 16.3878 79.3723 12.9595C82.8131 9.53117 87.479 7.60172 92.3465 7.59434H699.716C702.127 7.59512 704.515 8.06876 706.742 8.98822C708.969 9.90767 710.993 11.2549 712.697 12.9531C714.401 14.6512 715.753 16.667 716.675 18.8853C717.597 21.1036 718.071 23.481 718.07 25.8817V430.202Z" fill="#494143"/>
<path d="M701.511 33.9022H89.6865V412.381H701.511V33.9022Z" fill="url(#paint1_radial_21_41)"/>
<path opacity="0.2" d="M460.493 5.05426H92.3685C86.8253 5.06296 81.5118 7.26061 77.5937 11.1651C73.6756 15.0696 71.4729 20.3622 71.4686 25.8817V430.202C71.4729 435.721 73.6756 441.014 77.5937 444.918C81.5118 448.823 86.8253 451.02 92.3685 451.029H327.757L460.493 5.05426Z" fill="url(#paint2_radial_21_41)"/>
<path d="M396.785 440.92H0V454.605C4.62602 457.784 9.63103 460.379 14.8999 462.329C22.4999 465.11 26.8699 464.78 35.5368 465H756.44C765.107 464.779 769.474 465.11 777.1 462.329C782.366 460.373 787.371 457.779 792 454.605V440.92H396.785Z" fill="url(#paint3_linear_21_41)"/>
<path d="M449.786 440.92H342.186C342.186 440.92 340.386 451.029 361.294 451.029H430.676C451.582 451.029 449.786 440.92 449.786 440.92Z" fill="url(#paint4_linear_21_41)"/>
<path d="M702.029 33.5739H90.0085V412.818H702.029V33.5739Z" fill="#EBEBEB"/>
<path d="M226.067 33.2112H89.9425V413.105H226.067V33.2112Z" fill="#C5C6CB"/>
<path d="M226.067 33.2112H89.9425V70.1773H226.067V33.2112Z" fill="#029FA0"/>
<path d="M216.992 83.3208H99.0175V88.2513H216.992V83.3208Z" fill="white"/>
<path d="M216.992 196.683H99.0175V201.614H216.992V196.683Z" fill="white"/>
<path d="M193.067 140.002H99.0175V144.933H193.067V140.002Z" fill="white"/>
<path d="M216.992 112.072H99.0175V116.181H216.992V112.072Z" fill="white"/>
<path d="M186.467 168.754H99.0175V172.862H186.467V168.754Z" fill="white"/>
<path d="M198.017 97.2858H99.0175V102.216H198.017V97.2858Z" fill="white"/>
<path d="M210.392 153.967H99.0175V158.898H210.392V153.967Z" fill="white"/>
<path d="M207.092 126.037H99.0175V130.968H207.092V126.037Z" fill="white"/>
<path d="M198.017 182.719H99.0175V187.649H198.017V182.719Z" fill="white"/>
<path d="M99.0175 221.456H178.654V226.386H99.0175V221.456Z" fill="white"/>
<path d="M210.392 250.207H99.0175V254.316H210.392V250.207Z" fill="white"/>
<path d="M198.017 235.421H99.0175V240.351H198.017V235.421Z" fill="white"/>
<path d="M207.092 264.172H99.0175V269.103H207.092V264.172Z" fill="white"/>
<path d="M217.017 46.4791H127.017V54.4449H217.017V46.4791Z" fill="white"/>
<path d="M530.615 188.844H243.267C241.058 188.844 239.267 190.627 239.267 192.827V395.979C239.267 398.178 241.058 399.962 243.267 399.962H530.615C532.824 399.962 534.615 398.178 534.615 395.979V192.827C534.615 190.627 532.824 188.844 530.615 188.844Z" fill="white"/>
<path d="M507.802 217.596H478.929C475.511 217.596 472.741 220.354 472.741 223.757C472.741 227.159 475.511 229.918 478.929 229.918H507.802C511.22 229.918 513.99 227.159 513.99 223.757C513.99 220.354 511.22 217.596 507.802 217.596Z" fill="#00D3D4"/>
<path d="M507.802 255.383H478.929C475.511 255.383 472.741 258.142 472.741 261.544C472.741 264.947 475.511 267.705 478.929 267.705H507.802C511.22 267.705 513.99 264.947 513.99 261.544C513.99 258.142 511.22 255.383 507.802 255.383Z" fill="#00D3D4"/>
<path d="M507.802 293.992H478.929C475.511 293.992 472.741 296.751 472.741 300.153C472.741 303.556 475.511 306.314 478.929 306.314H507.802C511.22 306.314 513.99 303.556 513.99 300.153C513.99 296.751 511.22 293.992 507.802 293.992Z" fill="#00D3D4"/>
<path d="M507.802 331.78H478.929C475.511 331.78 472.741 334.538 472.741 337.941C472.741 341.343 475.511 344.102 478.929 344.102H507.802C511.22 344.102 513.99 341.343 513.99 337.941C513.99 334.538 511.22 331.78 507.802 331.78Z" fill="#00D3D4"/>
<path d="M507.802 371.21H478.929C475.511 371.21 472.741 373.969 472.741 377.371C472.741 380.774 475.511 383.532 478.929 383.532H507.802C511.22 383.532 513.99 380.774 513.99 377.371C513.99 373.969 511.22 371.21 507.802 371.21Z" fill="#00D3D4"/>
<path d="M366.316 220.881H306.091V223.347H366.316V220.881Z" fill="#C5C6CB"/>
<path d="M356.416 224.989H306.091V227.454H356.416V224.989Z" fill="#C5C6CB"/>
<path d="M435.616 220.881H396.016V223.347H435.616V220.881Z" fill="#C5C6CB"/>
<path d="M366.316 258.669H306.091V261.134H366.316V258.669Z" fill="#C5C6CB"/>
<path d="M356.416 262.776H306.091V265.242H356.416V262.776Z" fill="#C5C6CB"/>
<path d="M435.616 258.669H396.016V261.134H435.616V258.669Z" fill="#C5C6CB"/>
<path d="M366.316 297.278H306.091V299.743H366.316V297.278Z" fill="#C5C6CB"/>
<path d="M356.416 301.385H306.091V303.851H356.416V301.385Z" fill="#C5C6CB"/>
<path d="M435.616 297.278H396.016V299.743H435.616V297.278Z" fill="#C5C6CB"/>
<path d="M366.316 335.066H306.091V337.531H366.316V335.066Z" fill="#C5C6CB"/>
<path d="M356.416 339.173H306.091V341.638H356.416V339.173Z" fill="#C5C6CB"/>
<path d="M435.616 335.066H396.016V337.531H435.616V335.066Z" fill="#C5C6CB"/>
<path d="M366.316 373.675H306.091V376.14H366.316V373.675Z" fill="#C5C6CB"/>
<path d="M356.416 377.782H306.091V380.247H356.416V377.782Z" fill="#C5C6CB"/>
<path d="M435.616 373.675H396.016V376.14H435.616V373.675Z" fill="#C5C6CB"/>
<path d="M278.042 246.347H245.867V278.384H278.042V246.347Z" fill="#C5C6CB"/>
<path d="M278.042 284.956H245.867V316.993H278.042V284.956Z" fill="#C5C6CB"/>
<path d="M278.042 322.744H245.867V354.781H278.042V322.744Z" fill="#C5C6CB"/>
<path d="M278.042 361.353H245.867V393.39H278.042V361.353Z" fill="#C5C6CB"/>
<path d="M278.042 208.559H245.867V240.597H278.042V208.559Z" fill="#C5C6CB"/>
<path d="M243.267 188.844H530.615C531.676 188.844 532.694 189.264 533.444 190.011C534.194 190.758 534.615 191.771 534.615 192.827V201.988H239.267V192.827C239.267 191.771 239.688 190.758 240.438 190.011C241.188 189.264 242.206 188.844 243.267 188.844V188.844Z" fill="#383A4A"/>
<path d="M682.89 83.3208H552.99C549.677 83.3208 546.99 85.9956 546.99 89.2951V152.1C546.99 155.4 549.677 158.074 552.99 158.074H682.89C686.203 158.074 688.89 155.4 688.89 152.1V89.2951C688.89 85.9956 686.203 83.3208 682.89 83.3208Z" fill="white"/>
<path d="M626.19 91.5355H551.94V96.4661H626.19V91.5355Z" fill="#ACACAC"/>
<path d="M528.615 83.3208H399.541C396.227 83.3208 393.541 85.9956 393.541 89.2951V152.1C393.541 155.4 396.227 158.074 399.541 158.074H528.615C531.929 158.074 534.615 155.4 534.615 152.1V89.2951C534.615 85.9956 531.929 83.3208 528.615 83.3208Z" fill="white"/>
<path d="M472.741 91.5355H398.491V96.4661H472.741V91.5355Z" fill="#ACACAC"/>
<path d="M375.166 83.3208H245.267C241.953 83.3208 239.267 85.9956 239.267 89.2951V152.1C239.267 155.4 241.953 158.074 245.267 158.074H375.166C378.48 158.074 381.166 155.4 381.166 152.1V89.2951C381.166 85.9956 378.48 83.3208 375.166 83.3208Z" fill="white"/>
<path d="M318.466 91.5355H244.217V96.4661H318.466V91.5355Z" fill="#ACACAC"/>
<path d="M682.89 303.028H552.99C549.677 303.028 546.99 305.703 546.99 309.003V393.987C546.99 397.287 549.677 399.962 552.99 399.962H682.89C686.203 399.962 688.89 397.287 688.89 393.987V309.003C688.89 305.703 686.203 303.028 682.89 303.028Z" fill="white"/>
<path d="M702.089 33.2112H226.067V70.1773H702.089V33.2112Z" fill="#C5C6CB"/>
<path d="M110.017 62.2115C116.093 62.2115 121.017 57.3077 121.017 51.2586C121.017 45.2095 116.093 40.3057 110.017 40.3057C103.942 40.3057 99.0175 45.2095 99.0175 51.2586C99.0175 57.3077 103.942 62.2115 110.017 62.2115Z" fill="white"/>
<path d="M552.265 102.414H626.515V104.406H552.265V102.414Z" fill="#ACACAC"/>
<path d="M398.266 102.414H472.516V104.406H398.266V102.414Z" fill="#ACACAC"/>
<path d="M552.265 114.362H626.515V116.354H552.265V114.362Z" fill="#ACACAC"/>
<path d="M244.267 100.422H318.516V102.414H244.267V100.422Z" fill="#ACACAC"/>
<path d="M552.265 106.397H626.515V108.389H552.265V106.397Z" fill="#ACACAC"/>
<path d="M552.265 106.397H626.515V108.389H552.265V106.397Z" fill="#ACACAC"/>
<path d="M398.266 106.397H472.516V108.389H398.266V106.397Z" fill="#ACACAC"/>
<path d="M552.265 118.345H626.515V120.337H552.265V118.345Z" fill="#ACACAC"/>
<path d="M244.267 104.405H318.516V106.397H244.267V104.405Z" fill="#ACACAC"/>
<path d="M552.265 110.379H626.515V112.372H552.265V110.379Z" fill="#ACACAC"/>
<path d="M398.266 110.379H472.516V112.372H398.266V110.379Z" fill="#ACACAC"/>
<path d="M398.266 114.362H472.516V116.354H398.266V114.362Z" fill="#ACACAC"/>
<path d="M552.265 122.328H626.515V124.32H552.265V122.328Z" fill="#ACACAC"/>
<path d="M244.267 108.388H318.516V110.38H244.267V108.388Z" fill="#ACACAC"/>
<path d="M619.215 43.741H244.217V58.6768H619.215V43.741Z" fill="white"/>
<path d="M618.715 44.239H244.717V58.179H618.715V44.239Z" stroke="#C5C6CB"/>
<path d="M679.802 43.3446H638.928C634.406 43.3446 630.74 46.9946 630.74 51.4971C630.74 55.9995 634.406 59.6495 638.928 59.6495H679.802C684.324 59.6495 687.99 55.9995 687.99 51.4971C687.99 46.9946 684.324 43.3446 679.802 43.3446Z" fill="white"/>
<path d="M682.89 181.556H552.99C549.677 181.556 546.99 184.231 546.99 187.531V280.73C546.99 284.03 549.677 286.704 552.99 286.704H682.89C686.203 286.704 688.89 284.03 688.89 280.73V187.531C688.89 184.231 686.203 181.556 682.89 181.556Z" fill="white"/>
<path d="M567.615 228.38H559.365V283.419H567.615V228.38Z" fill="#92A1FF"/>
<path d="M591.54 244.81H583.29V283.419H591.54V244.81Z" fill="#92A1FF"/>
<path d="M615.465 235.773H607.215V283.419H615.465V235.773Z" fill="#92A1FF"/>
<path d="M639.39 248.095H631.14V283.419H639.39V248.095Z" fill="#92A1FF"/>
<path d="M663.315 235.773H655.065V283.419H663.315V235.773Z" fill="#92A1FF"/>
<path d="M575.865 209.486H567.615V283.419H575.865V209.486Z" fill="#5168FF"/>
<path d="M599.79 217.701H591.54V283.419H599.79V217.701Z" fill="#5168FF"/>
<path d="M623.715 214.415H615.465V283.419H623.715V214.415Z" fill="#5168FF"/>
<path d="M647.64 207.022H639.39V283.419H647.64V207.022Z" fill="#5168FF"/>
<path d="M671.565 199.629H663.315V283.419H671.565V199.629Z" fill="#5168FF"/>
<path d="M551.939 188.95H550.29V282.597H551.939V188.95Z" fill="#C5C6CB"/>
<path d="M683.115 283.419V281.776H550.29V283.419H683.115Z" fill="#C5C6CB"/>
<path d="M641.04 371.21V351.495H621.24V371.21H641.04Z" fill="#ACACAC"/>
<path d="M685.59 395.033V351.495H644.34V395.033H685.59Z" fill="#C5C6CB"/>
<path d="M641.04 395.033V375.318H621.24V395.033H641.04Z" fill="#ACACAC"/>
<path d="M594.84 371.21V351.495H575.04V371.21H594.84Z" fill="#ACACAC"/>
<path d="M594.84 395.033V375.318H575.04V395.033H594.84Z" fill="#ACACAC"/>
<path d="M617.94 371.21V351.495H598.14V371.21H617.94Z" fill="#ACACAC"/>
<path d="M617.94 395.033V375.318H598.14V395.033H617.94Z" fill="#ACACAC"/>
<path d="M571.74 371.21V351.495H551.94V371.21H571.74Z" fill="#ACACAC"/>
<path d="M571.74 395.033V375.318H551.94V395.033H571.74Z" fill="#ACACAC"/>
<path d="M685.59 314.961H551.94V316.604H685.59V314.961Z" fill="#C5C6CB"/>
<path d="M605.565 305.914H551.94V308.379H605.565V305.914Z" fill="#C5C6CB"/>
<path d="M678.165 328.747H551.94V330.39H678.165V328.747Z" fill="#C5C6CB"/>
<path d="M660.84 318.407H551.94V320.051H660.84V318.407Z" fill="#C5C6CB"/>
<path d="M672.39 311.514H551.94V313.157H672.39V311.514Z" fill="#C5C6CB"/>
<path d="M682.29 332.193H551.94V333.836H682.29V332.193Z" fill="#C5C6CB"/>
<path d="M677.34 321.853H551.94V323.497H677.34V321.853Z" fill="#C5C6CB"/>
<path d="M679.815 335.639H551.94V337.283H679.815V335.639Z" fill="#C5C6CB"/>
<path d="M681.465 325.3H551.94V326.943H681.465V325.3Z" fill="#C5C6CB"/>
<path d="M678.99 342.459H551.94V344.102H678.99V342.459Z" fill="#C5C6CB"/>
<defs>
<radialGradient id="paint0_radial_21_41" cx="0" cy="0" r="1" gradientUnits="userSpaceOnUse" gradientTransform="translate(282.053 68.4127) scale(283.686 282.772)">
<stop stop-color="#DAD8DB"/>
<stop offset="1" stop-color="#868686"/>
</radialGradient>
<radialGradient id="paint1_radial_21_41" cx="0" cy="0" r="1" gradientUnits="userSpaceOnUse" gradientTransform="translate(279.848 223.142) scale(366.265 364.854)">
<stop stop-color="#6E7072"/>
<stop offset="0.63" stop-color="#626566"/>
<stop offset="1" stop-color="#595C5D"/>
</radialGradient>
<radialGradient id="paint2_radial_21_41" cx="0" cy="0" r="1" gradientUnits="userSpaceOnUse" gradientTransform="translate(843.287 257.922) scale(618.366 615.891)">
<stop stop-color="white"/>
<stop offset="0.09" stop-color="white" stop-opacity="0.949"/>
<stop offset="0.25" stop-color="white" stop-opacity="0.831"/>
<stop offset="0.45" stop-color="white" stop-opacity="0.631"/>
<stop offset="0.7" stop-color="white" stop-opacity="0.361"/>
<stop offset="0.99" stop-color="white" stop-opacity="0.02"/>
<stop offset="1" stop-color="white" stop-opacity="0"/>
</radialGradient>
<linearGradient id="paint3_linear_21_41" x1="396" y1="464.711" x2="396" y2="447.374" gradientUnits="userSpaceOnUse">
<stop stop-color="#6A6C6D"/>
<stop offset="0.29" stop-color="#818484"/>
<stop offset="1" stop-color="#B7BCB9"/>
</linearGradient>
<linearGradient id="paint4_linear_21_41" x1="342.147" y1="445.975" x2="449.824" y2="445.975" gradientUnits="userSpaceOnUse">
<stop stop-color="#6A6C6D"/>
<stop offset="0.04" stop-color="#8B8F8E"/>
<stop offset="0.1" stop-color="#AEB4B0"/>
<stop offset="0.15" stop-color="#C9D1CB"/>
<stop offset="0.21" stop-color="#DCE5DF"/>
<stop offset="0.26" stop-color="#E8F2EA"/>
<stop offset="0.32" stop-color="#ECF6EE"/>
<stop offset="0.7" stop-color="#ECF6EE"/>
<stop offset="0.74" stop-color="#E4EEE7"/>
<stop offset="0.8" stop-color="#D0D8D2"/>
<stop offset="0.88" stop-color="#AEB4B0"/>
<stop offset="0.96" stop-color="#7F8382"/>
<stop offset="1" stop-color="#6A6C6D"/>
</linearGradient>
</defs>
</svg>
