<svg width="401" height="242" viewBox="0 0 401 242" fill="none" xmlns="http://www.w3.org/2000/svg">
<path d="M358.948 0H42.0296C37.3788 0 33.6086 3.85818 33.6086 8.61749V228.743C33.6086 233.502 37.3788 237.36 42.0296 237.36H358.948C363.599 237.36 367.369 233.502 367.369 228.743V8.61749C367.369 3.85818 363.599 0 358.948 0Z" fill="url(#paint0_radial_26_223)"/>
<path d="M358.024 2.62939H42.9536C39.2115 2.62939 36.178 5.73372 36.178 9.56309V227.797C36.178 231.626 39.2115 234.73 42.9536 234.73H358.024C361.766 234.73 364.799 231.626 364.799 227.797V9.56309C364.799 5.73372 361.766 2.62939 358.024 2.62939Z" fill="#231F20"/>
<path d="M354.217 2.62939H46.7481C43.9412 2.63387 41.2506 3.77768 39.2668 5.80983C37.283 7.84197 36.168 10.5965 36.1665 13.4689V223.891C36.168 226.763 37.283 229.518 39.2668 231.55C41.2506 233.582 43.9412 234.726 46.7481 234.73H354.217C357.024 234.726 359.715 233.582 361.698 231.55C363.682 229.518 364.797 226.763 364.799 223.891V13.4689C364.797 10.5965 363.682 7.84197 361.698 5.80983C359.715 3.77768 357.024 2.63387 354.217 2.62939ZM363.508 223.891C363.509 226.414 362.531 228.834 360.789 230.619C359.046 232.403 356.682 233.407 354.217 233.408H46.7481C44.2837 233.404 41.9215 232.399 40.1798 230.615C38.4381 228.831 37.4589 226.413 37.457 223.891V13.4689C37.4587 10.9469 38.4378 8.52856 40.1796 6.74434C41.9214 4.96012 44.2836 3.95571 46.7481 3.95143H354.217C356.682 3.95279 359.046 4.95627 360.789 6.74112C362.531 8.52597 363.509 10.946 363.508 13.4689V223.891Z" fill="#494143"/>
<path d="M355.126 17.6387H45.4023V214.624H355.126V17.6387Z" fill="url(#paint1_radial_26_223)"/>
<path opacity="0.2" d="M233.115 2.62939H46.7596C43.9526 2.63387 41.2621 3.77768 39.2783 5.80983C37.2945 7.84197 36.1795 10.5965 36.178 13.4689V223.891C36.1795 226.763 37.2945 229.518 39.2783 231.55C41.2621 233.582 43.9526 234.726 46.7596 234.73H165.921L233.115 2.62939Z" fill="url(#paint2_radial_26_223)"/>
<path d="M200.864 229.472H0V236.591C2.34234 238.246 4.87658 239.596 7.54442 240.61C11.3935 242.057 13.6037 241.885 17.9917 242H382.933C387.32 241.885 389.532 242.057 393.391 240.61C396.058 239.593 398.592 238.243 400.936 236.591V229.472H200.864Z" fill="url(#paint3_linear_26_223)"/>
<path d="M227.696 229.472H173.226C173.226 229.472 172.317 234.731 182.899 234.731H218.022C228.604 234.731 227.696 229.472 227.696 229.472Z" fill="url(#paint4_linear_26_223)"/>
<path d="M354.659 18.7158H45.6093V214.541H354.659V18.7158Z" fill="white"/>
<path d="M189.354 48.7152H90.3391V50.9905H189.354V48.7152Z" fill="#C5C6CB"/>
<path d="M172.513 52.5079H90.3391V54.7832H172.513V52.5079Z" fill="#C5C6CB"/>
<path d="M164.761 56.8093H90.3391V59.0847H164.761V56.8093Z" fill="#C5C6CB"/>
<path d="M333.946 48.7152H284.937V50.9905H333.946V48.7152Z" fill="#C5C6CB"/>
<path d="M333.946 52.3918H284.937V54.6672H333.946V52.3918Z" fill="#C5C6CB"/>
<path d="M263.127 48.7152H223.755V50.9905H263.127V48.7152Z" fill="#C5C6CB"/>
<path d="M268.17 52.2999H223.755V54.5752H268.17V52.2999Z" fill="#C5C6CB"/>
<path d="M189.354 83.6089H90.3391V85.8842H189.354V83.6089Z" fill="#C5C6CB"/>
<path d="M159.334 87.4015H90.3391V89.6768H159.334V87.4015Z" fill="#C5C6CB"/>
<path d="M176.389 91.7028H90.3391V93.9781H176.389V91.7028Z" fill="#C5C6CB"/>
<path d="M333.946 83.6089H284.937V85.8842H333.946V83.6089Z" fill="#C5C6CB"/>
<path d="M333.946 87.2853H284.937V89.5606H333.946V87.2853Z" fill="#C5C6CB"/>
<path d="M263.127 83.6089H223.755V85.8842H263.127V83.6089Z" fill="#C5C6CB"/>
<path d="M265.618 87.1934H223.755V89.4687H265.618V87.1934Z" fill="#C5C6CB"/>
<path d="M189.354 119.26H90.3391V121.535H189.354V119.26Z" fill="#C5C6CB"/>
<path d="M178.714 123.053H90.3391V125.328H178.714V123.053Z" fill="#C5C6CB"/>
<path d="M175.614 127.354H90.3391V129.63H175.614V127.354Z" fill="#C5C6CB"/>
<path d="M333.946 119.26H284.937V121.536H333.946V119.26Z" fill="#C5C6CB"/>
<path d="M333.946 122.937H284.937V125.212H333.946V122.937Z" fill="#C5C6CB"/>
<path d="M263.127 119.26H223.755V121.536H263.127V119.26Z" fill="#C5C6CB"/>
<path d="M270.665 122.845H223.755V125.12H270.665V122.845Z" fill="#C5C6CB"/>
<path d="M189.354 154.153H90.3391V156.428H189.354V154.153Z" fill="#C5C6CB"/>
<path d="M183.972 157.946H90.3391V160.221H183.972V157.946Z" fill="#C5C6CB"/>
<path d="M173.288 162.247H90.3391V164.522H173.288V162.247Z" fill="#C5C6CB"/>
<path d="M333.946 154.153H284.937V156.428H333.946V154.153Z" fill="#C5C6CB"/>
<path d="M333.946 157.83H284.937V160.105H333.946V157.83Z" fill="#C5C6CB"/>
<path d="M263.127 154.153H223.755V156.428H263.127V154.153Z" fill="#C5C6CB"/>
<path d="M270.665 157.738H223.755V160.014H270.665V157.738Z" fill="#C5C6CB"/>
<path d="M189.354 189.805H90.3391V192.08H189.354V189.805Z" fill="#C5C6CB"/>
<path d="M186.467 193.598H90.3391V195.873H186.467V193.598Z" fill="#C5C6CB"/>
<path d="M177.77 197.9H90.3391V200.175H177.77V197.9Z" fill="#C5C6CB"/>
<path d="M333.946 189.805H284.937V192.08H333.946V189.805Z" fill="#C5C6CB"/>
<path d="M333.946 193.481H284.937V195.757H333.946V193.481Z" fill="#C5C6CB"/>
<path d="M263.127 189.805H223.755V192.08H263.127V189.805Z" fill="#C5C6CB"/>
<path d="M268.17 193.39H223.755V195.665H268.17V193.39Z" fill="#C5C6CB"/>
<path d="M80.3963 72.057H51.4875V101.64H80.3963V72.057Z" fill="#C5C6CB"/>
<path d="M80.3963 107.767H51.4875V137.35H80.3963V107.767Z" fill="#C5C6CB"/>
<path d="M80.3963 142.718H51.4875V172.301H80.3963V142.718Z" fill="#C5C6CB"/>
<path d="M80.3963 178.427H51.4875V208.01H80.3963V178.427Z" fill="#C5C6CB"/>
<path d="M80.3963 37.1068H51.4875V66.6901H80.3963V37.1068Z" fill="#C5C6CB"/>
<path d="M354.658 18.1851H45.5576V30.3216H354.658V18.1851Z" fill="#ACACAC"/>
<g filter="url(#filter0_d_26_223)">
<path d="M199.786 176.735C234.314 176.735 262.305 148.092 262.305 112.758C262.305 77.4249 234.314 48.7815 199.786 48.7815C165.259 48.7815 137.268 77.4249 137.268 112.758C137.268 148.092 165.259 176.735 199.786 176.735Z" fill="white"/>
<path d="M199.786 174.162C232.925 174.162 259.79 146.67 259.79 112.758C259.79 78.8462 232.925 51.355 199.786 51.355C166.648 51.355 139.783 78.8462 139.783 112.758C139.783 146.67 166.648 174.162 199.786 174.162Z" stroke="#00D3D4" stroke-width="7"/>
</g>
<path d="M244 93.4102L188.187 150.529L153.029 114.559L167.925 99.3175L188.187 120.052L229.108 78.17L244 93.4102Z" fill="#029FA0"/>
<path d="M244 93.4102L188.187 150.529V120.045L229.107 78.17L244 93.4102Z" fill="#00D3D4"/>
<defs>
<filter id="filter0_d_26_223" x="117.283" y="31.855" width="165.007" height="167.807" filterUnits="userSpaceOnUse" color-interpolation-filters="sRGB">
<feFlood flood-opacity="0" result="BackgroundImageFix"/>
<feColorMatrix in="SourceAlpha" type="matrix" values="0 0 0 0 0 0 0 0 0 0 0 0 0 0 0 0 0 0 127 0" result="hardAlpha"/>
<feOffset dy="3"/>
<feGaussianBlur stdDeviation="9.5"/>
<feColorMatrix type="matrix" values="0 0 0 0 0 0 0 0 0 0 0 0 0 0 0 0 0 0 0.161 0"/>
<feBlend mode="normal" in2="BackgroundImageFix" result="effect1_dropShadow_26_223"/>
<feBlend mode="normal" in="SourceGraphic" in2="effect1_dropShadow_26_223" result="shape"/>
</filter>
<radialGradient id="paint0_radial_26_223" cx="0" cy="0" r="1" gradientUnits="userSpaceOnUse" gradientTransform="translate(142.816 35.6041) scale(143.61 147.163)">
<stop stop-color="#DAD8DB"/>
<stop offset="1" stop-color="#868686"/>
</radialGradient>
<radialGradient id="paint1_radial_26_223" cx="0" cy="0" r="1" gradientUnits="userSpaceOnUse" gradientTransform="translate(141.708 116.131) scale(185.414 189.894)">
<stop stop-color="#6E7072"/>
<stop offset="0.63" stop-color="#626566"/>
<stop offset="1" stop-color="#595C5D"/>
</radialGradient>
<radialGradient id="paint2_radial_26_223" cx="0" cy="0" r="1" gradientUnits="userSpaceOnUse" gradientTransform="translate(427.915 134.231) scale(313.037 320.531)">
<stop stop-color="white"/>
<stop offset="0.09" stop-color="white" stop-opacity="0.949"/>
<stop offset="0.25" stop-color="white" stop-opacity="0.831"/>
<stop offset="0.45" stop-color="white" stop-opacity="0.631"/>
<stop offset="0.7" stop-color="white" stop-opacity="0.361"/>
<stop offset="0.99" stop-color="white" stop-opacity="0.02"/>
<stop offset="1" stop-color="white" stop-opacity="0"/>
</radialGradient>
<linearGradient id="paint3_linear_26_223" x1="200.468" y1="241.85" x2="200.468" y2="232.829" gradientUnits="userSpaceOnUse">
<stop stop-color="#6A6C6D"/>
<stop offset="0.29" stop-color="#818484"/>
<stop offset="1" stop-color="#B7BCB9"/>
</linearGradient>
<linearGradient id="paint4_linear_26_223" x1="173.207" y1="232.101" x2="227.715" y2="232.101" gradientUnits="userSpaceOnUse">
<stop stop-color="#6A6C6D"/>
<stop offset="0.04" stop-color="#8B8F8E"/>
<stop offset="0.1" stop-color="#AEB4B0"/>
<stop offset="0.15" stop-color="#C9D1CB"/>
<stop offset="0.21" stop-color="#DCE5DF"/>
<stop offset="0.26" stop-color="#E8F2EA"/>
<stop offset="0.32" stop-color="#ECF6EE"/>
<stop offset="0.7" stop-color="#ECF6EE"/>
<stop offset="0.74" stop-color="#E4EEE7"/>
<stop offset="0.8" stop-color="#D0D8D2"/>
<stop offset="0.88" stop-color="#AEB4B0"/>
<stop offset="0.96" stop-color="#7F8382"/>
<stop offset="1" stop-color="#6A6C6D"/>
</linearGradient>
</defs>
</svg>
