<svg width="353" height="345" viewBox="0 0 353 345" fill="none" xmlns="http://www.w3.org/2000/svg">
<path d="M233.604 0H8.53562C3.82153 0 0 3.8146 0 8.52014V336.48C0 341.185 3.82153 345 8.53562 345H233.604C238.318 345 242.14 341.185 242.14 336.48V8.52014C242.14 3.8146 238.318 0 233.604 0Z" fill="url(#paint0_radial_26_75)"/>
<path d="M233.242 0.820923H8.89843C4.43826 0.820923 0.822571 4.43005 0.822571 8.88214V336.137C0.822571 340.589 4.43826 344.198 8.89843 344.198H233.242C237.703 344.198 241.318 340.589 241.318 336.137V8.88214C241.318 4.43005 237.703 0.820923 233.242 0.820923Z" fill="url(#paint1_radial_26_75)"/>
<path d="M233.242 0.820923H8.89843C4.43826 0.820923 0.822571 4.43005 0.822571 8.88214V336.137C0.822571 340.589 4.43826 344.198 8.89843 344.198H233.242C237.703 344.198 241.318 340.589 241.318 336.137V8.88214C241.318 4.43005 237.703 0.820923 233.242 0.820923Z" fill="url(#paint2_radial_26_75)"/>
<path d="M232.327 2.85437H9.79597C5.96508 2.85437 2.85953 5.95429 2.85953 9.77824V335.223C2.85953 339.047 5.96508 342.147 9.79597 342.147H232.327C236.158 342.147 239.263 339.047 239.263 335.223V9.77824C239.263 5.95429 236.158 2.85437 232.327 2.85437Z" fill="#231F20"/>
<path d="M226.377 30.6117H15.494V313.906H226.377V30.6117Z" fill="url(#paint3_radial_26_75)"/>
<path d="M114.377 332.264C115.112 333.249 116.052 334.063 117.134 334.649C118.215 335.234 119.412 335.578 120.64 335.655C121.868 335.733 123.098 335.542 124.245 335.097C125.391 334.652 126.427 333.962 127.28 333.077C128.133 332.192 128.782 331.131 129.183 329.97C129.583 328.809 129.726 327.574 129.6 326.353C129.474 325.131 129.083 323.951 128.454 322.895C127.825 321.84 126.974 320.934 125.958 320.24C125.958 320.24 126.691 324.681 124.403 326.591C122.115 328.5 119.829 326.109 117.898 326.109C115.967 326.109 112.859 328.124 114.377 332.264Z" fill="url(#paint4_linear_26_75)"/>
<path opacity="0.3" d="M121.062 331.746C120.224 331.746 119.405 331.498 118.709 331.033C118.012 330.569 117.469 329.908 117.149 329.136C116.828 328.363 116.744 327.513 116.907 326.693C117.071 325.873 117.474 325.119 118.067 324.528C118.659 323.937 119.414 323.534 120.236 323.371C121.057 323.208 121.909 323.291 122.683 323.611C123.457 323.931 124.118 324.473 124.584 325.169C125.049 325.864 125.298 326.681 125.298 327.518C125.298 328.639 124.851 329.715 124.057 330.507C123.263 331.3 122.185 331.746 121.062 331.746ZM121.062 324.182C120.401 324.182 119.755 324.378 119.205 324.745C118.655 325.111 118.227 325.632 117.974 326.242C117.721 326.852 117.655 327.522 117.784 328.17C117.913 328.817 118.231 329.411 118.699 329.878C119.166 330.344 119.762 330.662 120.41 330.791C121.058 330.92 121.73 330.853 122.341 330.601C122.952 330.348 123.474 329.921 123.841 329.372C124.208 328.824 124.404 328.179 124.404 327.519C124.404 326.634 124.052 325.785 123.425 325.16C122.798 324.534 121.948 324.182 121.062 324.182Z" fill="white"/>
<path opacity="0.2" d="M171.387 2.85437H15.2622C11.9805 2.88356 8.84155 4.19836 6.52169 6.51551C4.20182 8.83266 2.88666 11.9667 2.85953 15.2425V329.758C2.859 331.384 3.17939 332.994 3.8024 334.497C4.4254 336 5.33883 337.365 6.49052 338.516C7.64221 339.666 9.00962 340.579 10.5147 341.202C12.0197 341.824 13.6329 342.145 15.2622 342.146H70.6638L171.387 2.85437Z" fill="url(#paint5_radial_26_75)"/>
<path d="M226.009 30.5408H15.9918V92.6241H226.009V30.5408Z" fill="#C5C6CB"/>
<path d="M226.009 30.5408H15.9918V55.6074H226.009V30.5408Z" fill="#029FA0"/>
<path d="M201.896 38.0233H220.887" stroke="white" stroke-width="2"/>
<path d="M201.896 43.0109H220.887" stroke="white" stroke-width="2"/>
<path d="M201.896 48.0001H220.887" stroke="white" stroke-width="2"/>
<path d="M201.896 64.786H25.0621V67.7197H201.896V64.786Z" fill="white"/>
<path d="M201.896 81.0471H25.0621V83.9808H201.896V81.0471Z" fill="white"/>
<path d="M180.982 72.6138H25.0621V75.5474H180.982V72.6138Z" fill="white"/>
<path d="M26.0031 46.4884V37.7611H28.3099V39.3009H28.4122C28.594 38.7895 28.897 38.3861 29.3213 38.0907C29.7455 37.7952 30.2531 37.6475 30.844 37.6475C31.4425 37.6475 31.9519 37.7971 32.3724 38.0964C32.7929 38.3918 33.0732 38.7933 33.2133 39.3009H33.3042C33.4822 38.8009 33.8042 38.4013 34.2701 38.102C34.7398 37.799 35.2947 37.6475 35.9349 37.6475C36.7493 37.6475 37.4103 37.907 37.9179 38.4259C38.4292 38.9411 38.6849 39.6721 38.6849 40.6191V46.4884H36.2701V41.0964C36.2701 40.6115 36.1413 40.2479 35.8838 40.0054C35.6262 39.763 35.3042 39.6418 34.9179 39.6418C34.4785 39.6418 34.1357 39.782 33.8894 40.0623C33.6432 40.3388 33.5201 40.7043 33.5201 41.1589V46.4884H31.1735V41.0452C31.1735 40.6172 31.0504 40.2763 30.8042 40.0225C30.5618 39.7687 30.2417 39.6418 29.844 39.6418C29.575 39.6418 29.3326 39.71 29.1167 39.8464C28.9046 39.9789 28.736 40.1664 28.611 40.4089C28.486 40.6475 28.4235 40.9278 28.4235 41.2498V46.4884H26.0031ZM41.7786 49.7611C41.4718 49.7611 41.184 49.7365 40.915 49.6873C40.6499 49.6418 40.4302 49.5831 40.2559 49.5111L40.8014 47.7043C41.0855 47.7914 41.3411 47.8388 41.5684 47.8464C41.7995 47.8539 41.9983 47.8009 42.165 47.6873C42.3355 47.5736 42.4737 47.3804 42.5798 47.1077L42.7218 46.7384L39.5911 37.7611H42.1366L43.9434 44.1702H44.0343L45.8582 37.7611H48.4207L45.0286 47.4316C44.8658 47.9013 44.6442 48.3104 44.3639 48.6589C44.0874 49.0111 43.737 49.282 43.3127 49.4714C42.8885 49.6645 42.3771 49.7611 41.7786 49.7611ZM54.3014 37.7611V39.5793H49.0457V37.7611H54.3014ZM50.2389 35.6702H52.6593V43.8066C52.6593 44.0301 52.6934 44.2043 52.7616 44.3293C52.8298 44.4505 52.9245 44.5358 53.0457 44.585C53.1707 44.6342 53.3146 44.6589 53.4775 44.6589C53.5911 44.6589 53.7048 44.6494 53.8184 44.6304C53.9321 44.6077 54.0192 44.5907 54.0798 44.5793L54.4605 46.3804C54.3393 46.4183 54.1688 46.4619 53.9491 46.5111C53.7294 46.5642 53.4624 46.5964 53.148 46.6077C52.5646 46.6304 52.0533 46.5528 51.6139 46.3748C51.1783 46.1967 50.8393 45.9202 50.5968 45.5452C50.3544 45.1702 50.2351 44.6967 50.2389 44.1248V35.6702ZM58.486 41.4429V46.4884H56.0656V34.852H58.4179V39.3009H58.5201C58.7171 38.7858 59.0353 38.3823 59.4747 38.0907C59.9141 37.7952 60.4652 37.6475 61.1281 37.6475C61.7341 37.6475 62.2625 37.7801 62.7133 38.0452C63.1679 38.3066 63.5201 38.6835 63.7701 39.1759C64.0239 39.6645 64.1489 40.2498 64.1451 40.9316V46.4884H61.7247V41.3634C61.7285 40.8255 61.5921 40.407 61.3156 40.1077C61.0429 39.8085 60.6603 39.6589 60.1679 39.6589C59.8383 39.6589 59.5466 39.7289 59.2929 39.8691C59.0429 40.0092 58.8459 40.2138 58.7019 40.4827C58.5618 40.7479 58.4898 41.0679 58.486 41.4429ZM69.9931 46.6589C69.1106 46.6589 68.3473 46.4714 67.7034 46.0964C67.0632 45.7176 66.5689 45.1911 66.2204 44.5168C65.8719 43.8388 65.6977 43.0528 65.6977 42.1589C65.6977 41.2573 65.8719 40.4695 66.2204 39.7952C66.5689 39.1172 67.0632 38.5907 67.7034 38.2157C68.3473 37.8369 69.1106 37.6475 69.9931 37.6475C70.8757 37.6475 71.6371 37.8369 72.2772 38.2157C72.9212 38.5907 73.4174 39.1172 73.7659 39.7952C74.1143 40.4695 74.2886 41.2573 74.2886 42.1589C74.2886 43.0528 74.1143 43.8388 73.7659 44.5168C73.4174 45.1911 72.9212 45.7176 72.2772 46.0964C71.6371 46.4714 70.8757 46.6589 69.9931 46.6589ZM70.0045 44.7839C70.406 44.7839 70.7412 44.6702 71.0102 44.4429C71.2791 44.2119 71.4818 43.8975 71.6181 43.4998C71.7583 43.102 71.8284 42.6494 71.8284 42.1418C71.8284 41.6342 71.7583 41.1816 71.6181 40.7839C71.4818 40.3861 71.2791 40.0717 71.0102 39.8407C70.7412 39.6096 70.406 39.4941 70.0045 39.4941C69.5992 39.4941 69.2583 39.6096 68.9818 39.8407C68.709 40.0717 68.5026 40.3861 68.3625 40.7839C68.2261 41.1816 68.1579 41.6342 68.1579 42.1418C68.1579 42.6494 68.2261 43.102 68.3625 43.4998C68.5026 43.8975 68.709 44.2119 68.9818 44.4429C69.2583 44.6702 69.5992 44.7839 70.0045 44.7839ZM83.1238 40.2498L80.9079 40.3861C80.87 40.1967 80.7886 40.0263 80.6636 39.8748C80.5386 39.7195 80.3738 39.5964 80.1693 39.5054C79.9685 39.4108 79.728 39.3634 79.4477 39.3634C79.0727 39.3634 78.7564 39.4429 78.4988 39.602C78.2412 39.7573 78.1125 39.9657 78.1125 40.227C78.1125 40.4354 78.1958 40.6115 78.3625 40.7554C78.5291 40.8994 78.8151 41.0149 79.2204 41.102L80.8 41.4202C81.6484 41.5945 82.281 41.8748 82.6977 42.2611C83.1143 42.6475 83.3227 43.1551 83.3227 43.7839C83.3227 44.3558 83.1541 44.8577 82.817 45.2895C82.4837 45.7214 82.0253 46.0585 81.442 46.3009C80.8625 46.5395 80.1939 46.6589 79.4363 46.6589C78.281 46.6589 77.3606 46.4183 76.675 45.9373C75.9931 45.4524 75.5935 44.7933 75.4761 43.96L77.8568 43.835C77.9287 44.1873 78.103 44.4562 78.3795 44.6418C78.656 44.8236 79.0102 44.9145 79.442 44.9145C79.8662 44.9145 80.2072 44.8331 80.4647 44.6702C80.7261 44.5036 80.8587 44.2895 80.8625 44.0282C80.8587 43.8085 80.7659 43.6286 80.584 43.4884C80.4022 43.3445 80.1219 43.2346 79.7431 43.1589L78.2318 42.8577C77.3795 42.6873 76.745 42.3918 76.3284 41.9714C75.9155 41.5509 75.709 41.0149 75.709 40.3634C75.709 39.8028 75.8606 39.3198 76.1636 38.9145C76.4704 38.5092 76.9003 38.1967 77.4534 37.977C78.0102 37.7573 78.6617 37.6475 79.4079 37.6475C80.5102 37.6475 81.3776 37.8804 82.0102 38.3464C82.6465 38.8123 83.0178 39.4467 83.1238 40.2498Z" fill="white"/>
<path d="M226.234 92.3757H15.9918V313.746H226.234V92.3757Z" fill="white"/>
<path d="M211.704 230.843H186.358C182.943 230.843 180.175 233.607 180.175 237.016V237.017C180.175 240.426 182.943 243.189 186.358 243.189H211.704C215.12 243.189 217.888 240.426 217.888 237.017V237.016C217.888 233.607 215.12 230.843 211.704 230.843Z" fill="#C5C6CB"/>
<path d="M211.704 256.241H186.358C182.943 256.241 180.175 259.004 180.175 262.413V262.414C180.175 265.823 182.943 268.587 186.358 268.587H211.704C215.12 268.587 217.888 265.823 217.888 262.414V262.413C217.888 259.004 215.12 256.241 211.704 256.241Z" fill="#C5C6CB"/>
<path d="M211.704 281.097H186.358C182.943 281.097 180.175 283.86 180.175 287.27V287.271C180.175 290.68 182.943 293.443 186.358 293.443H211.704C215.12 293.443 217.888 290.68 217.888 287.271V287.27C217.888 283.86 215.12 281.097 211.704 281.097Z" fill="#C5C6CB"/>
<path d="M211.704 105.221H186.358C182.943 105.221 180.175 107.984 180.175 111.393V111.394C180.175 114.803 182.943 117.567 186.358 117.567H211.704C215.12 117.567 217.888 114.803 217.888 111.394V111.393C217.888 107.984 215.12 105.221 211.704 105.221Z" fill="#1CDD29"/>
<path d="M211.704 130.078H186.358C182.943 130.078 180.175 132.841 180.175 136.25V136.251C180.175 139.661 182.943 142.424 186.358 142.424H211.704C215.12 142.424 217.888 139.661 217.888 136.251V136.25C217.888 132.841 215.12 130.078 211.704 130.078Z" fill="#C5C6CB"/>
<path d="M211.704 155.476H186.358C182.943 155.476 180.175 158.239 180.175 161.648V161.649C180.175 165.058 182.943 167.822 186.358 167.822H211.704C215.12 167.822 217.888 165.058 217.888 161.649V161.648C217.888 158.239 215.12 155.476 211.704 155.476Z" fill="#C5C6CB"/>
<path d="M211.704 180.332H186.358C182.943 180.332 180.175 183.095 180.175 186.504V186.505C180.175 189.914 182.943 192.678 186.358 192.678H211.704C215.12 192.678 217.888 189.914 217.888 186.505V186.504C217.888 183.095 215.12 180.332 211.704 180.332Z" fill="#C5C6CB"/>
<path d="M211.704 206.27H186.358C182.943 206.27 180.175 209.034 180.175 212.443V212.444C180.175 215.853 182.943 218.617 186.358 218.617H211.704C215.12 218.617 217.888 215.853 217.888 212.444V212.443C217.888 209.034 215.12 206.27 211.704 206.27Z" fill="#C5C6CB"/>
<path d="M117.187 232.412H62.1252V234.881H117.187V232.412Z" fill="#C5C6CB"/>
<path d="M108.136 237.139H62.1252V239.608H108.136V237.139Z" fill="#C5C6CB"/>
<path d="M166.222 232.412H130.016V234.881H166.222V232.412Z" fill="#C5C6CB"/>
<path d="M117.187 258.088H62.1252V260.556H117.187V258.088Z" fill="#C5C6CB"/>
<path d="M108.136 262.815H62.1252V265.283H108.136V262.815Z" fill="#C5C6CB"/>
<path d="M166.222 258.088H130.016V260.556H166.222V258.088Z" fill="#C5C6CB"/>
<path d="M117.187 283.217H62.1252V285.686H117.187V283.217Z" fill="#C5C6CB"/>
<path d="M108.136 287.944H62.1252V290.413H108.136V287.944Z" fill="#C5C6CB"/>
<path d="M166.222 283.217H130.016V285.686H166.222V283.217Z" fill="#C5C6CB"/>
<path d="M117.187 106.518H62.1252V108.987H117.187V106.518Z" fill="#C5C6CB"/>
<path d="M108.136 110.633H62.1252V113.102H108.136V110.633Z" fill="#C5C6CB"/>
<path d="M166.222 106.518H130.016V108.987H166.222V106.518Z" fill="#C5C6CB"/>
<path d="M117.187 131.647H62.1252V134.116H117.187V131.647Z" fill="#C5C6CB"/>
<path d="M108.136 136.374H62.1252V138.843H108.136V136.374Z" fill="#C5C6CB"/>
<path d="M166.222 131.647H130.016V134.116H166.222V131.647Z" fill="#C5C6CB"/>
<path d="M117.187 157.322H62.1252V159.791H117.187V157.322Z" fill="#C5C6CB"/>
<path d="M108.136 162.049H62.1252V164.518H108.136V162.049Z" fill="#C5C6CB"/>
<path d="M166.222 157.322H130.016V159.791H166.222V157.322Z" fill="#C5C6CB"/>
<path d="M117.187 182.452H62.1252V184.921H117.187V182.452Z" fill="#C5C6CB"/>
<path d="M108.136 187.179H62.1252V189.648H108.136V187.179Z" fill="#C5C6CB"/>
<path d="M166.222 182.452H130.016V184.921H166.222V182.452Z" fill="#C5C6CB"/>
<path d="M117.187 205.747H62.1252V208.215H117.187V205.747Z" fill="#C5C6CB"/>
<path d="M108.136 210.86H62.1252V213.328H108.136V210.86Z" fill="#C5C6CB"/>
<path d="M166.222 206.744H130.016V209.213H166.222V206.744Z" fill="#C5C6CB"/>
<path d="M53.9723 105.592H23.9877V124.548H53.9723V105.592Z" fill="#92A1FF"/>
<path d="M53.9723 180.418H23.9877V199.373H53.9723V180.418Z" fill="#ACACAC"/>
<path d="M53.9723 131.531H23.9877V150.487H53.9723V131.531Z" fill="#92A1FF"/>
<path d="M53.9723 206.357H23.9877V225.313H53.9723V206.357Z" fill="#ACACAC"/>
<path d="M53.9723 256.241H23.9877V275.197H53.9723V256.241Z" fill="#ACACAC"/>
<path d="M53.9723 156.473H23.9877V175.429H53.9723V156.473Z" fill="#ACACAC"/>
<path d="M53.9723 231.299H23.9877V250.255H53.9723V231.299Z" fill="#ACACAC"/>
<path d="M53.9723 282.18H23.9877V301.136H53.9723V282.18Z" fill="#ACACAC"/>
<path d="M15.9918 30.5408H225.884V314.106H15.9918V30.5408Z" fill="black" fill-opacity="0.14"/>
<g filter="url(#filter0_d_26_75)">
<path d="M217.888 80.4784H23.9877V154.306H217.888V80.4784Z" fill="white"/>
</g>
<path d="M217.888 80.4784H23.9877V91.4528H217.888V80.4784Z" fill="#495BCF"/>
<path d="M41.4787 110.907H201.397" stroke="#42455D" stroke-width="2"/>
<path d="M72.4628 100.931H170.413" stroke="#42455D" stroke-width="4"/>
<path d="M34.4823 114.898H207.394" stroke="#42455D" stroke-width="2"/>
<path d="M37.4808 118.889H204.395" stroke="#42455D" stroke-width="2"/>
<path d="M38.4803 122.88H204.395" stroke="#42455D" stroke-width="2"/>
<path d="M135.93 134.979H104.946C101.082 134.979 97.9498 138.106 97.9498 141.963C97.9498 145.82 101.082 148.947 104.946 148.947H135.93C139.794 148.947 142.927 145.82 142.927 141.963C142.927 138.106 139.794 134.979 135.93 134.979Z" fill="#92A1FF"/>
<path d="M344.854 57.8591H249.466C245.42 57.8591 242.14 61.1333 242.14 65.1721V279.828C242.14 283.867 245.42 287.141 249.466 287.141H344.854C348.9 287.141 352.18 283.867 352.18 279.828V65.1721C352.18 61.1333 348.9 57.8591 344.854 57.8591Z" fill="url(#paint6_radial_26_75)"/>
<path d="M344.436 58.7549H249.904C246.112 58.7549 243.037 61.8235 243.037 65.6089V279.411C243.037 283.196 246.112 286.265 249.904 286.265H344.436C348.229 286.265 351.303 283.196 351.303 279.411V65.6089C351.303 61.8235 348.229 58.7549 344.436 58.7549Z" fill="url(#paint7_radial_26_75)"/>
<path d="M344.436 58.7549H249.904C246.112 58.7549 243.037 61.8235 243.037 65.6089V279.411C243.037 283.196 246.112 286.265 249.904 286.265H344.436C348.229 286.265 351.303 283.196 351.303 279.411V65.6089C351.303 61.8235 348.229 58.7549 344.436 58.7549Z" fill="url(#paint8_radial_26_75)"/>
<path d="M343.332 60.9749H250.988C247.825 60.9749 245.261 63.5343 245.261 66.6915V278.308C245.261 281.466 247.825 284.025 250.988 284.025H343.332C346.495 284.025 349.059 281.466 349.059 278.308V66.6915C349.059 63.5343 346.495 60.9749 343.332 60.9749Z" fill="#231F20"/>
<path d="M342.895 89.6182H250.918V255.909H342.895V89.6182Z" fill="url(#paint9_radial_26_75)"/>
<path d="M290.152 274.484C290.907 275.484 291.869 276.307 292.974 276.899C294.079 277.491 295.299 277.836 296.55 277.911C297.801 277.986 299.054 277.789 300.221 277.334C301.389 276.878 302.444 276.175 303.312 275.273C304.181 274.372 304.844 273.292 305.254 272.11C305.664 270.927 305.812 269.67 305.688 268.425C305.564 267.18 305.171 265.977 304.536 264.898C303.9 263.82 303.038 262.891 302.008 262.178C302.008 262.178 302.75 266.715 300.409 268.682C298.068 270.648 295.727 268.195 293.757 268.195C291.787 268.195 288.684 270.239 290.152 274.484Z" fill="url(#paint10_linear_26_75)"/>
<path d="M296.76 75.4808C296.866 75.6294 297.006 75.7498 297.17 75.8312C297.333 75.9126 297.514 75.9526 297.696 75.9477C297.949 75.9514 298.197 75.8732 298.401 75.7249C298.606 75.5765 298.757 75.366 298.832 75.1248C298.906 74.8837 298.901 74.6248 298.816 74.3871C298.731 74.1493 298.571 73.9455 298.36 73.806C298.36 73.806 298.46 74.4295 298.145 74.7038C297.83 74.9781 297.501 74.7038 297.246 74.7038C297.158 74.7134 297.073 74.7427 296.998 74.7897C296.923 74.8368 296.859 74.9001 296.812 74.9751C296.765 75.0502 296.736 75.1348 296.727 75.2228C296.717 75.3107 296.728 75.3996 296.758 75.4828L296.76 75.4808Z" fill="url(#paint11_linear_26_75)"/>
<path d="M292.098 75.4808C292.246 75.6785 292.453 75.8248 292.689 75.8991C292.925 75.9733 293.178 75.9717 293.413 75.8946C293.648 75.8174 293.852 75.6686 293.998 75.469C294.144 75.2695 294.223 75.0293 294.224 74.7825C294.223 74.5918 294.176 74.4042 294.088 74.235C294 74.0657 293.873 73.9197 293.717 73.809C293.723 74.1215 293.649 74.4303 293.503 74.7067C293.288 74.979 292.859 74.7067 292.586 74.7067C292.498 74.7163 292.413 74.7457 292.338 74.7927C292.263 74.8397 292.2 74.9031 292.153 74.9781C292.106 75.0531 292.076 75.1377 292.067 75.2257C292.058 75.3136 292.068 75.4025 292.098 75.4858V75.4808Z" fill="url(#paint12_linear_26_75)"/>
<path d="M300.896 75.4808C301.118 75.7079 301.422 75.8376 301.74 75.8412C302.058 75.8449 302.365 75.7222 302.592 75.5003C302.82 75.2783 302.95 74.9752 302.953 74.6577C302.957 74.3401 302.834 74.0341 302.612 73.807C302.612 73.807 302.712 74.4304 302.397 74.7048C302.082 74.9791 301.753 74.7048 301.48 74.7048C301.385 74.7036 301.291 74.7249 301.206 74.7668C301.121 74.8087 301.047 74.8701 300.99 74.946C300.933 75.0219 300.894 75.1101 300.878 75.2036C300.861 75.297 300.867 75.393 300.895 75.4838L300.896 75.4808Z" fill="url(#paint13_linear_26_75)"/>
<path opacity="0.3" d="M297.072 273.997C296.061 273.994 295.083 273.641 294.304 272.998C293.524 272.356 292.992 271.463 292.798 270.473C292.604 269.483 292.76 268.457 293.239 267.568C293.718 266.68 294.491 265.985 295.426 265.601C296.361 265.218 297.4 265.17 298.366 265.465C299.333 265.76 300.166 266.381 300.726 267.221C301.285 268.061 301.536 269.069 301.434 270.073C301.333 271.077 300.886 272.015 300.17 272.726C299.763 273.131 299.279 273.452 298.748 273.67C298.216 273.888 297.647 273.999 297.072 273.997ZM297.072 266.209C296.286 266.213 295.526 266.489 294.921 266.989C294.315 267.49 293.903 268.184 293.753 268.955C293.604 269.725 293.726 270.523 294.1 271.213C294.473 271.903 295.075 272.443 295.802 272.74C296.529 273.037 297.338 273.073 298.089 272.843C298.84 272.612 299.488 272.129 299.922 271.475C300.356 270.821 300.55 270.037 300.47 269.256C300.39 268.476 300.042 267.747 299.484 267.194C299.167 266.88 298.791 266.63 298.377 266.461C297.962 266.292 297.519 266.206 297.072 266.209Z" fill="white"/>
<path opacity="0.2" d="M256.439 60.9749C253.476 60.9793 250.635 62.1562 248.54 64.2476C246.445 66.339 245.266 69.1742 245.261 72.1319V272.864C245.265 275.822 246.443 278.659 248.539 280.751C250.634 282.843 253.475 284.021 256.439 284.025H259.037L325.299 60.9749H256.439Z" fill="url(#paint14_radial_26_75)"/>
<path d="M343.52 89.4396H251.135V132.567H343.52V89.4396Z" fill="#C5C6CB"/>
<path d="M343.52 89.4396H251.135V108.52H343.52V89.4396Z" fill="#029FA0"/>
<path d="M315.409 113.708H256.208V115.828H315.409V113.708Z" fill="white"/>
<path d="M328.171 125.462H256.208V127.581H328.171V125.462Z" fill="white"/>
<path d="M329.17 119.366H256.208V121.486H329.17V119.366Z" fill="white"/>
<path d="M327.096 94.9268H339.09" stroke="white"/>
<path d="M327.096 98.418H339.09" stroke="white"/>
<path d="M327.096 101.911H339.09" stroke="white"/>
<path d="M256.907 102.387V95.8418H258.637V96.9966H258.714C258.85 96.6131 259.078 96.3105 259.396 96.0889C259.714 95.8673 260.095 95.7565 260.538 95.7565C260.987 95.7565 261.369 95.8687 261.684 96.0932C261.999 96.3148 262.21 96.6159 262.315 96.9966H262.383C262.516 96.6216 262.758 96.3219 263.107 96.0974C263.46 95.8702 263.876 95.7565 264.356 95.7565C264.967 95.7565 265.463 95.9511 265.843 96.3403C266.227 96.7267 266.418 97.275 266.418 97.9852V102.387H264.607V98.3432C264.607 97.9795 264.511 97.7068 264.318 97.525C264.124 97.3432 263.883 97.2523 263.593 97.2523C263.264 97.2523 263.007 97.3574 262.822 97.5676C262.637 97.775 262.545 98.0491 262.545 98.39V102.387H260.785V98.3048C260.785 97.9838 260.693 97.7281 260.508 97.5378C260.326 97.3474 260.086 97.2523 259.788 97.2523C259.586 97.2523 259.404 97.3034 259.242 97.4057C259.083 97.5051 258.957 97.6457 258.863 97.8275C258.769 98.0065 258.722 98.2168 258.722 98.4582V102.387H256.907ZM268.739 104.842C268.509 104.842 268.293 104.823 268.091 104.786C267.892 104.752 267.727 104.708 267.597 104.654L268.006 103.299C268.219 103.364 268.411 103.4 268.581 103.406C268.754 103.411 268.904 103.372 269.029 103.286C269.156 103.201 269.26 103.056 269.34 102.852L269.446 102.575L267.098 95.8418H269.007L270.362 100.649H270.431L271.798 95.8418H273.72L271.176 103.095C271.054 103.447 270.888 103.754 270.678 104.015C270.47 104.279 270.208 104.482 269.889 104.624C269.571 104.769 269.188 104.842 268.739 104.842ZM278.131 95.8418V97.2054H274.189V95.8418H278.131ZM275.084 94.2736H276.899V100.376C276.899 100.543 276.925 100.674 276.976 100.768C277.027 100.859 277.098 100.923 277.189 100.96C277.283 100.997 277.391 101.015 277.513 101.015C277.598 101.015 277.683 101.008 277.769 100.994C277.854 100.977 277.919 100.964 277.965 100.955L278.25 102.306C278.159 102.335 278.031 102.367 277.867 102.404C277.702 102.444 277.502 102.468 277.266 102.477C276.828 102.494 276.445 102.436 276.115 102.302C275.788 102.168 275.534 101.961 275.352 101.68C275.171 101.399 275.081 101.043 275.084 100.614V94.2736ZM281.269 98.6031V102.387H279.454V93.6599H281.218V96.9966H281.295C281.443 96.6102 281.681 96.3077 282.011 96.0889C282.34 95.8673 282.754 95.7565 283.251 95.7565C283.705 95.7565 284.102 95.856 284.44 96.0548C284.781 96.2508 285.045 96.5335 285.232 96.9028C285.423 97.2693 285.516 97.7082 285.514 98.2196V102.387H283.698V98.5435C283.701 98.14 283.599 97.8261 283.391 97.6017C283.187 97.3773 282.9 97.265 282.531 97.265C282.284 97.265 282.065 97.3176 281.874 97.4227C281.687 97.5278 281.539 97.6812 281.431 97.8829C281.326 98.0818 281.272 98.3219 281.269 98.6031ZM289.9 102.515C289.238 102.515 288.665 102.374 288.182 102.093C287.702 101.809 287.331 101.414 287.07 100.909C286.809 100.4 286.678 99.8105 286.678 99.14C286.678 98.4639 286.809 97.873 287.07 97.3673C287.331 96.8588 287.702 96.4639 288.182 96.1827C288.665 95.8986 289.238 95.7565 289.9 95.7565C290.562 95.7565 291.133 95.8986 291.613 96.1827C292.096 96.4639 292.468 96.8588 292.729 97.3673C292.991 97.873 293.121 98.4639 293.121 99.14C293.121 99.8105 292.991 100.4 292.729 100.909C292.468 101.414 292.096 101.809 291.613 102.093C291.133 102.374 290.562 102.515 289.9 102.515ZM289.908 101.109C290.209 101.109 290.461 101.024 290.662 100.853C290.864 100.68 291.016 100.444 291.118 100.146C291.224 99.8474 291.276 99.5079 291.276 99.1273C291.276 98.7466 291.224 98.4071 291.118 98.1088C291.016 97.8105 290.864 97.5747 290.662 97.4014C290.461 97.2281 290.209 97.1415 289.908 97.1415C289.604 97.1415 289.349 97.2281 289.141 97.4014C288.937 97.5747 288.782 97.8105 288.677 98.1088C288.574 98.4071 288.523 98.7466 288.523 99.1273C288.523 99.5079 288.574 99.8474 288.677 100.146C288.782 100.444 288.937 100.68 289.141 100.853C289.349 101.024 289.604 101.109 289.908 101.109ZM299.748 97.7082L298.086 97.8105C298.057 97.6685 297.996 97.5406 297.902 97.427C297.809 97.3105 297.685 97.2182 297.532 97.15C297.381 97.079 297.201 97.0435 296.991 97.0435C296.709 97.0435 296.472 97.1031 296.279 97.2224C296.086 97.3389 295.989 97.4952 295.989 97.6912C295.989 97.8474 296.052 97.9795 296.177 98.0875C296.302 98.1954 296.516 98.2821 296.82 98.3474L298.005 98.5861C298.641 98.7168 299.116 98.927 299.428 99.2168C299.741 99.5065 299.897 99.8872 299.897 100.359C299.897 100.788 299.77 101.164 299.518 101.488C299.268 101.812 298.924 102.065 298.486 102.247C298.052 102.426 297.55 102.515 296.982 102.515C296.116 102.515 295.425 102.335 294.911 101.974C294.4 101.61 294.1 101.116 294.012 100.491L295.797 100.397C295.851 100.661 295.982 100.863 296.189 101.002C296.397 101.139 296.662 101.207 296.986 101.207C297.304 101.207 297.56 101.146 297.753 101.024C297.949 100.899 298.049 100.738 298.052 100.542C298.049 100.377 297.979 100.242 297.843 100.137C297.706 100.029 297.496 99.9469 297.212 99.89L296.079 99.6642C295.439 99.5364 294.964 99.3148 294.651 98.9994C294.341 98.6841 294.187 98.2821 294.187 97.7935C294.187 97.373 294.3 97.0108 294.527 96.7068C294.758 96.4028 295.08 96.1685 295.495 96.0037C295.912 95.8389 296.401 95.7565 296.961 95.7565C297.787 95.7565 298.438 95.9312 298.912 96.2807C299.39 96.6301 299.668 97.106 299.748 97.7082Z" fill="white"/>
<path d="M343.438 132.093H251.135V255.691H343.438V132.093Z" fill="white"/>
<path d="M311.871 147.931H298.878C296.946 147.931 295.38 149.494 295.38 151.423C295.38 153.351 296.946 154.915 298.878 154.915H311.871C313.803 154.915 315.369 153.351 315.369 151.423C315.369 149.494 313.803 147.931 311.871 147.931Z" fill="#1CDD29"/>
<path d="M311.871 147.931H298.878C296.946 147.931 295.38 149.494 295.38 151.423C295.38 153.351 296.946 154.915 298.878 154.915H311.871C313.803 154.915 315.369 153.351 315.369 151.423C315.369 149.494 313.803 147.931 311.871 147.931Z" fill="#1CDD29"/>
<path d="M311.871 171.565H298.878C296.946 171.565 295.38 173.128 295.38 175.057C295.38 176.985 296.946 178.549 298.878 178.549H311.871C313.803 178.549 315.369 176.985 315.369 175.057C315.369 173.128 313.803 171.565 311.871 171.565Z" fill="#C5C6CB"/>
<path d="M311.871 195.714H298.878C296.946 195.714 295.38 197.277 295.38 199.205C295.38 201.134 296.946 202.697 298.878 202.697H311.871C313.803 202.697 315.369 201.134 315.369 199.205C315.369 197.277 313.803 195.714 311.871 195.714Z" fill="#C5C6CB"/>
<path d="M311.871 219.347H298.878C296.946 219.347 295.38 220.911 295.38 222.839C295.38 224.768 296.946 226.331 298.878 226.331H311.871C313.803 226.331 315.369 224.768 315.369 222.839C315.369 220.911 313.803 219.347 311.871 219.347Z" fill="#C5C6CB"/>
<path d="M311.871 244.009H298.878C296.946 244.009 295.38 245.572 295.38 247.501C295.38 249.429 296.946 250.993 298.878 250.993H311.871C313.803 250.993 315.369 249.429 315.369 247.501C315.369 245.572 313.803 244.009 311.871 244.009Z" fill="#C5C6CB"/>
<path d="M337.846 137.256H294.27V139.725H337.846V137.256Z" fill="#C5C6CB"/>
<path d="M330.682 141.371H294.27V143.84H330.682V141.371Z" fill="#C5C6CB"/>
<path d="M337.846 161.297H294.27V163.766H337.846V161.297Z" fill="#C5C6CB"/>
<path d="M330.682 165.818H294.27V168.287H330.682V165.818Z" fill="#C5C6CB"/>
<path d="M337.846 185.859H294.27V188.328H337.846V185.859Z" fill="#C5C6CB"/>
<path d="M330.682 190.382H294.27V192.851H330.682V190.382Z" fill="#C5C6CB"/>
<path d="M337.846 209.901H294.27V212.369H337.846V209.901Z" fill="#C5C6CB"/>
<path d="M330.682 214.422H294.27V216.891H330.682V214.422Z" fill="#C5C6CB"/>
<path d="M337.846 231.963H294.27V234.432H337.846V231.963Z" fill="#C5C6CB"/>
<path d="M330.682 237.076H294.27V239.545H330.682V237.076Z" fill="#C5C6CB"/>
<path d="M286.117 136.33H256.133V155.286H286.117V136.33Z" fill="#ACACAC"/>
<path d="M286.117 208.163H256.133V227.118H286.117V208.163Z" fill="#ACACAC"/>
<path d="M286.117 161.272H256.133V180.228H286.117V161.272Z" fill="#ACACAC"/>
<path d="M286.117 232.107H256.133V251.063H286.117V232.107Z" fill="#ACACAC"/>
<path d="M286.117 185.216H256.133V204.172H286.117V185.216Z" fill="#ACACAC"/>
<path d="M251.185 89.0485H343.852V255.686H251.185V89.0485Z" fill="black" fill-opacity="0.14"/>
<g filter="url(#filter1_d_26_75)">
<path d="M336.189 123.36H257.229V186.214H336.189V123.36Z" fill="white"/>
</g>
<path d="M336.189 123.36H257.229V132.34H336.189V123.36Z" fill="#495BCF"/>
<path d="M271.521 149.766H324.042" stroke="#42455D" stroke-width="2"/>
<path d="M270.521 140.787H323.042" stroke="#42455D" stroke-width="3"/>
<path d="M265.97 153.393H328.8" stroke="#42455D" stroke-width="2"/>
<path d="M268.348 157.022H326.421" stroke="#42455D" stroke-width="2"/>
<path d="M269.141 160.65H326.421" stroke="#42455D" stroke-width="2"/>
<path d="M309 169.656H284.413C281.347 169.656 278.862 172.136 278.862 175.197V175.198C278.862 178.258 281.347 180.739 284.413 180.739H309C312.065 180.739 314.551 178.258 314.551 175.198V175.197C314.551 172.136 312.065 169.656 309 169.656Z" fill="#92A1FF"/>
<defs>
<filter id="filter0_d_26_75" x="17.9877" y="77.4784" width="205.901" height="85.828" filterUnits="userSpaceOnUse" color-interpolation-filters="sRGB">
<feFlood flood-opacity="0" result="BackgroundImageFix"/>
<feColorMatrix in="SourceAlpha" type="matrix" values="0 0 0 0 0 0 0 0 0 0 0 0 0 0 0 0 0 0 127 0" result="hardAlpha"/>
<feOffset dy="3"/>
<feGaussianBlur stdDeviation="3"/>
<feColorMatrix type="matrix" values="0 0 0 0 0 0 0 0 0 0 0 0 0 0 0 0 0 0 0.161 0"/>
<feBlend mode="normal" in2="BackgroundImageFix" result="effect1_dropShadow_26_75"/>
<feBlend mode="normal" in="SourceGraphic" in2="effect1_dropShadow_26_75" result="shape"/>
</filter>
<filter id="filter1_d_26_75" x="251.229" y="120.36" width="90.9595" height="74.8535" filterUnits="userSpaceOnUse" color-interpolation-filters="sRGB">
<feFlood flood-opacity="0" result="BackgroundImageFix"/>
<feColorMatrix in="SourceAlpha" type="matrix" values="0 0 0 0 0 0 0 0 0 0 0 0 0 0 0 0 0 0 127 0" result="hardAlpha"/>
<feOffset dy="3"/>
<feGaussianBlur stdDeviation="3"/>
<feColorMatrix type="matrix" values="0 0 0 0 0 0 0 0 0 0 0 0 0 0 0 0 0 0 0.161 0"/>
<feBlend mode="normal" in2="BackgroundImageFix" result="effect1_dropShadow_26_75"/>
<feBlend mode="normal" in="SourceGraphic" in2="effect1_dropShadow_26_75" result="shape"/>
</filter>
<radialGradient id="paint0_radial_26_75" cx="0" cy="0" r="1" gradientUnits="userSpaceOnUse" gradientTransform="translate(172.433 936.339) scale(193.708 1050.95)">
<stop offset="0.36" stop-color="#DAD8DB"/>
<stop offset="1" stop-color="#868686"/>
</radialGradient>
<radialGradient id="paint1_radial_26_75" cx="0" cy="0" r="1" gradientUnits="userSpaceOnUse" gradientTransform="translate(172.442 932.744) scale(92.4468 501.56)">
<stop stop-color="#DAD8DB"/>
<stop offset="0.19" stop-color="#D4D2D5"/>
<stop offset="0.44" stop-color="#C2C0C2"/>
<stop offset="0.75" stop-color="#A4A4A5"/>
<stop offset="1" stop-color="#868686"/>
</radialGradient>
<radialGradient id="paint2_radial_26_75" cx="0" cy="0" r="1" gradientUnits="userSpaceOnUse" gradientTransform="translate(172.442 932.744) scale(92.4468 501.56)">
<stop stop-color="#DAD8DB"/>
<stop offset="0.19" stop-color="#D4D2D5"/>
<stop offset="0.44" stop-color="#C2C0C2"/>
<stop offset="0.75" stop-color="#A4A4A5"/>
<stop offset="1" stop-color="#868686"/>
</radialGradient>
<radialGradient id="paint3_radial_26_75" cx="0" cy="0" r="1" gradientUnits="userSpaceOnUse" gradientTransform="translate(157.141 172.259) scale(189.47 189.241)">
<stop stop-color="#6E7072"/>
<stop offset="1" stop-color="#595C5D"/>
</radialGradient>
<linearGradient id="paint4_linear_26_75" x1="126.776" y1="336.367" x2="114.855" y2="316.527" gradientUnits="userSpaceOnUse">
<stop stop-color="#494143"/>
<stop offset="0.15" stop-color="#494143" stop-opacity="0.702"/>
<stop offset="0.39" stop-color="#494143" stop-opacity="0.322"/>
<stop offset="0.6" stop-color="#494143" stop-opacity="0.078"/>
<stop offset="0.76" stop-color="#494143" stop-opacity="0"/>
</linearGradient>
<radialGradient id="paint5_radial_26_75" cx="0" cy="0" r="1" gradientUnits="userSpaceOnUse" gradientTransform="translate(585.971 195.233) scale(346.886 346.416)">
<stop stop-color="white"/>
<stop offset="0.09" stop-color="white" stop-opacity="0.949"/>
<stop offset="0.25" stop-color="white" stop-opacity="0.831"/>
<stop offset="0.45" stop-color="white" stop-opacity="0.631"/>
<stop offset="0.7" stop-color="white" stop-opacity="0.361"/>
<stop offset="0.99" stop-color="white" stop-opacity="0.02"/>
<stop offset="1" stop-color="white" stop-opacity="0"/>
</radialGradient>
<radialGradient id="paint6_radial_26_75" cx="0" cy="0" r="1" gradientUnits="userSpaceOnUse" gradientTransform="translate(356.423 282.526) scale(121.028 236.83)">
<stop offset="0.36" stop-color="#DAD8DB"/>
<stop offset="1" stop-color="#868686"/>
</radialGradient>
<radialGradient id="paint7_radial_26_75" cx="0" cy="0" r="1" gradientUnits="userSpaceOnUse" gradientTransform="translate(356.434 172.51) scale(67.0023 66.8879)">
<stop offset="0.36" stop-color="#DAD8DB"/>
<stop offset="1" stop-color="#868686"/>
</radialGradient>
<radialGradient id="paint8_radial_26_75" cx="0" cy="0" r="1" gradientUnits="userSpaceOnUse" gradientTransform="translate(356.434 172.51) scale(67.0023 66.8879)">
<stop offset="0.36" stop-color="#DAD8DB"/>
<stop offset="1" stop-color="#868686"/>
</radialGradient>
<radialGradient id="paint9_radial_26_75" cx="0" cy="0" r="1" gradientUnits="userSpaceOnUse" gradientTransform="translate(333.798 172.763) scale(101.941 101.77)">
<stop stop-color="#6E7072"/>
<stop offset="0.74" stop-color="#5F6263"/>
<stop offset="1" stop-color="#595C5D"/>
</radialGradient>
<linearGradient id="paint10_linear_26_75" x1="302.938" y1="278.698" x2="290.698" y2="258.395" gradientUnits="userSpaceOnUse">
<stop stop-color="#494143"/>
<stop offset="0.15" stop-color="#494143" stop-opacity="0.702"/>
<stop offset="0.39" stop-color="#494143" stop-opacity="0.322"/>
<stop offset="0.6" stop-color="#494143" stop-opacity="0.078"/>
<stop offset="0.76" stop-color="#494143" stop-opacity="0"/>
</linearGradient>
<linearGradient id="paint11_linear_26_75" x1="298.458" y1="76.0445" x2="296.798" y2="73.307" gradientUnits="userSpaceOnUse">
<stop stop-color="#494143"/>
<stop offset="0.15" stop-color="#494143" stop-opacity="0.702"/>
<stop offset="0.39" stop-color="#494143" stop-opacity="0.322"/>
<stop offset="0.6" stop-color="#494143" stop-opacity="0.078"/>
<stop offset="0.76" stop-color="#494143" stop-opacity="0"/>
</linearGradient>
<linearGradient id="paint12_linear_26_75" x1="293.833" y1="76.0501" x2="292.155" y2="73.3111" gradientUnits="userSpaceOnUse">
<stop stop-color="#494143"/>
<stop offset="0.15" stop-color="#494143" stop-opacity="0.702"/>
<stop offset="0.39" stop-color="#494143" stop-opacity="0.322"/>
<stop offset="0.6" stop-color="#494143" stop-opacity="0.078"/>
<stop offset="0.76" stop-color="#494143" stop-opacity="0"/>
</linearGradient>
<linearGradient id="paint13_linear_26_75" x1="302.63" y1="76.0447" x2="301.014" y2="73.2857" gradientUnits="userSpaceOnUse">
<stop stop-color="#494143"/>
<stop offset="0.15" stop-color="#494143" stop-opacity="0.702"/>
<stop offset="0.39" stop-color="#494143" stop-opacity="0.322"/>
<stop offset="0.6" stop-color="#494143" stop-opacity="0.078"/>
<stop offset="0.76" stop-color="#494143" stop-opacity="0"/>
</linearGradient>
<radialGradient id="paint14_radial_26_75" cx="0" cy="0" r="1" gradientUnits="userSpaceOnUse" gradientTransform="translate(630.029 187.444) scale(205.142 204.76)">
<stop stop-color="white"/>
<stop offset="0.09" stop-color="white" stop-opacity="0.949"/>
<stop offset="0.25" stop-color="white" stop-opacity="0.831"/>
<stop offset="0.45" stop-color="white" stop-opacity="0.631"/>
<stop offset="0.7" stop-color="white" stop-opacity="0.361"/>
<stop offset="0.99" stop-color="white" stop-opacity="0.02"/>
<stop offset="1" stop-color="white" stop-opacity="0"/>
</radialGradient>
</defs>
</svg>
