<svg width="483" height="486" viewBox="0 0 483 486" fill="none" xmlns="http://www.w3.org/2000/svg">
<g clip-path="url(#clip0_15_32)">
<path d="M65.2906 239.288C58.1249 230.592 47.377 222.254 35.1963 222.732C23.9584 223.161 12.7806 230.592 8.92331 240.898C2.53453 257.789 5.34099 277.624 7.46659 295.075C8.41175 302.961 10.6053 310.646 13.9654 317.844C15.0402 320.135 16.236 322.369 17.5477 324.534C24.8563 319.357 34.6014 316.101 43.7367 316.936C42.4229 309.552 38.6376 304.137 32.6068 299.473C32.367 299.351 32.1538 299.183 31.9796 298.979C31.8054 298.774 31.6737 298.537 31.592 298.281C31.5049 298.009 31.479 297.722 31.5161 297.439C31.5533 297.157 31.6526 296.886 31.807 296.646C35.499 287.166 37.4685 277.104 37.6228 266.933C37.6902 266.325 37.95 265.754 38.3645 265.304C38.779 264.854 39.3265 264.547 39.9274 264.429C40.2365 264.349 40.5584 264.332 40.8742 264.379C41.19 264.425 41.4932 264.535 41.7659 264.7C42.0386 264.866 42.2753 265.085 42.462 265.343C42.6487 265.602 42.7816 265.895 42.8528 266.206C46.7221 277.538 50.6874 289.526 58.9868 298.519C58.8236 294.87 58.8517 291.216 59.0708 287.57C60.0026 271.8 62.5581 255.364 67.8001 240.036C67.3588 240.213 66.8704 240.235 66.4148 240.098C65.9593 239.962 65.5636 239.675 65.2926 239.285L65.2906 239.288Z" fill="white"/>
<path d="M20.4351 328.617C22.5943 331.396 25.6414 333.354 29.0694 334.163C37.8347 335.845 43.2567 329.321 43.9376 322.008C35.8291 320.983 26.7998 323.963 20.4351 328.617Z" fill="#805F75"/>
<path d="M290.367 262.57C300.554 257.512 315.862 251.835 325.167 261.472C333.085 269.619 334.159 282.227 334.577 292.828C335.115 307.141 332.478 322.529 336.118 336.497C339.557 349.617 348.586 357.967 359.705 364.48C345.887 347.434 349.935 317.352 352.038 296.645C353.877 278.57 353.877 256.089 340.095 241.86C331.975 233.511 320.378 229.514 308.701 233.057C297.024 236.6 286.882 244.806 284.04 256.52C284.023 256.607 283.995 256.691 283.956 256.77C285.643 257.953 287.221 259.282 288.673 260.743C289.256 261.343 289.818 261.952 290.367 262.57Z" fill="#00D3D4"/>
<path d="M173.01 201.333C172.967 208.596 173.972 215.827 175.996 222.804C177.888 229.306 181.311 235.261 185.98 240.17C186.276 240.053 186.592 239.992 186.912 239.992C203.129 239.692 207.859 229.066 214.713 217.113C216.661 213.623 219.175 210.479 222.153 207.809C204.502 209.349 186.638 214.526 173.01 201.333Z" fill="#029FA0"/>
<path d="M175.983 169.568C183.328 178.287 195.366 181.21 206.664 181.616C204.828 177.299 203.261 172.873 201.971 168.364C198.471 156.806 196.86 142.647 187.424 133.856C181.851 128.726 175.007 125.175 167.6 123.57L163.719 122.688C172.078 131.264 177.596 142.131 177.404 154.893C177.255 159.811 176.781 164.713 175.983 169.568Z" fill="#00D3D4"/>
<path d="M111.937 465.467C112.724 467.775 113.812 469.969 115.173 471.992C118.016 476.12 122.016 477.002 126.542 474.378C128.197 473.495 129.652 472.281 130.817 470.812C131.982 469.342 132.832 467.649 133.314 465.838C126.335 463.902 118.978 463.775 111.937 465.467Z" fill="#805F75"/>
<path d="M173.38 189.357C173.277 190.947 173.193 192.57 173.129 194.223C173.469 194.379 173.768 194.612 174.001 194.903C188.176 212.043 209.039 203.05 228.191 202.526C222.558 200.706 217.517 197.41 213.593 192.983C211.927 190.99 210.452 188.846 209.186 186.578C208.996 186.596 208.804 186.596 208.613 186.578C196.416 186.435 183.929 183.62 175.02 175.676C174.359 180.293 173.667 184.824 173.38 189.357Z" fill="#029FA0"/>
<path d="M157.867 83.7946C156.983 76.3639 156.207 68.9083 155.767 61.4257C155.527 61.1617 155.341 60.8538 155.218 60.5189C154.025 57.1077 149.606 56.6303 146.178 57.1906C145.182 64.7081 144.226 72.2243 143.31 79.7392C148.756 78.0576 153.652 80.2395 157.867 83.7946Z" fill="white"/>
<path d="M158.831 91.9772C158.7 91.8786 158.58 91.7668 158.473 91.6437C154.461 87.0151 149.275 81.6715 142.769 85.4653L142.602 85.5372C141.806 92.3044 141.01 99.0637 140.213 105.815C140.169 106.243 140.017 106.654 139.771 107.007C143.52 108.528 147.142 110.342 150.603 112.435C151.033 112.468 151.445 112.616 151.797 112.864C154.868 114.825 158.259 116.234 161.816 117.027C160.984 108.64 159.898 100.315 158.831 91.9772Z" fill="white"/>
<path d="M155.394 53.6165C154.917 39.4103 155.275 25.2399 154.846 11.0696C154.762 8.68393 155.263 2.2309 154.105 7.61042C153.472 10.5803 153.018 13.5741 152.481 16.568C150.689 26.2532 149.097 35.9667 147.704 45.7085C147.404 47.8056 147.155 49.9187 146.856 52.0187C149.796 51.729 152.759 52.2833 155.394 53.6165Z" fill="white"/>
<path d="M164.018 447.337C162.904 451.919 162.394 456.626 162.501 461.34C169.667 462.712 176.831 463.989 183.997 464.835C184.367 463.321 184.797 461.83 185.191 460.342C185.191 460.282 185.06 460.242 184.991 460.187C178.91 454.398 172.282 449.544 164.018 447.337Z" fill="#805F75"/>
<path d="M334.1 346.366C328.427 333.496 329.323 319.874 329.49 306.229C329.633 294.766 330.49 281.001 325.167 270.444C318.575 257.324 304.626 261.257 293.484 266.687C298.619 274.392 300.65 283.385 300.65 292.725C318.706 297.497 319.506 317.333 321.716 332.148C323.136 341.635 325.728 349.479 333.372 356.194C341.881 363.573 351.935 368.957 362.797 371.951C350.998 366.06 339.414 358.402 334.1 346.366Z" fill="#029FA0"/>
<path d="M278.903 259.613C263.139 250.453 245.56 255.045 228.413 256.369C207.18 257.991 184.011 252.982 174.338 232.74C165.107 213.453 167.196 190.789 170.326 170.296C170.244 169.892 170.303 169.471 170.493 169.104C172.355 156.592 173.335 144.699 165.978 133.416C159.08 122.811 148.065 115.082 135.86 110.752C123.463 106.386 109.706 104.395 96.5576 106.386C84.09 108.271 62.5461 115.785 68.7439 131.951C73.7 144.905 86.3706 147.672 97.5244 153.934C106.231 158.812 112.453 165.409 110.446 175.619C110.303 176.318 110.327 176.275 110.076 177.349C108.248 191.543 94.635 201.491 86.9195 212.989C76.6734 228.281 70.9525 244.789 67.5132 262.574C64.0738 280.36 60.9804 301.15 67.9191 318.497C70.0672 323.806 73.4482 328.53 77.7832 332.278C78.751 333.1 92.5204 341.307 99.888 342.404C99.3741 337.466 98.8372 332.504 98.3833 327.542C98.0963 324.334 103.303 324.358 103.602 327.542C104.187 334.103 105.002 340.663 105.668 347.2C106.588 356.396 107.304 365.7 106.468 374.932C105.632 384.164 103.589 393.04 103.124 402.209C102.349 417.227 106.038 430.979 108.176 445.649C108.857 450.325 109.37 455.609 110.565 460.628C118.257 458.76 126.292 458.809 133.961 460.771C133.961 460.449 133.961 460.127 133.961 459.793C133.531 447.365 128.362 435.938 126.007 423.83C123.976 413.358 126.449 402.79 131.68 393.486C143.336 372.826 167.773 355.03 162.73 329.075C162.13 325.926 167.137 324.581 167.758 327.739C169.884 338.737 167.424 348.649 162.611 357.905C178.685 359.837 195.691 359.289 208.421 349.042C209.007 345.501 210.08 342.057 211.61 338.808C212.995 335.874 217.486 338.427 216.1 341.337C215.4 342.831 214.809 344.374 214.332 345.954L214.232 346.299C214.316 346.299 214.232 346.418 214.172 346.657C213.77 348.106 213.462 349.58 213.252 351.069C213.18 351.069 213.252 351.669 213.133 351.714C213.133 352.213 213.033 352.712 213.014 353.216C212.995 353.721 213.014 354.409 213.014 355.014C212.892 356.828 213.049 358.651 213.48 360.417C214.453 365.904 216.84 371.043 220.407 375.328C220.407 375.328 223.512 378.775 224.216 379.3H224.316C225.08 379.98 225.869 380.636 226.705 381.257C234.837 387.22 240.319 393.912 239.96 404.301C239.518 417.077 234.144 428.742 228.901 440.277C225.697 446.819 223.002 453.598 220.84 460.554C229.538 462.591 237.471 467.074 243.698 473.472C243.998 472.483 244.235 471.588 244.45 470.976C245.458 467.681 246.654 464.447 248.033 461.289C252.678 451.568 259.498 442.849 264.31 433.175C267.762 425.919 270.621 418.396 272.86 410.68C276.442 399.217 280.086 387.312 280.766 375.313C281.017 370.876 281.41 365.043 278.58 361.202C275.356 356.8 269.026 359.115 264.847 360.785C261.861 361.977 260.511 357.54 263.147 356.109C263.121 355.839 263.151 355.566 263.235 355.307C263.32 355.048 263.456 354.81 263.637 354.606C277.346 337.12 294.818 318.119 295.392 295.05C295.873 281.346 291.836 267.128 278.903 259.613ZM132.347 135.3C131.242 135.258 130.174 134.892 129.276 134.249C128.378 133.605 127.689 132.712 127.295 131.68C126.901 130.648 126.819 129.523 127.061 128.446C127.302 127.368 127.855 126.385 128.651 125.619C129.447 124.853 130.452 124.338 131.539 124.137C132.626 123.937 133.748 124.06 134.766 124.492C135.783 124.924 136.651 125.645 137.262 126.565C137.872 127.486 138.198 128.566 138.199 129.67C138.167 131.191 137.534 132.637 136.437 133.692C135.34 134.748 133.87 135.326 132.347 135.3Z" fill="white"/>
<path d="M318.348 342.096C314.897 328.271 317.573 303.52 300.435 297.867C300.123 301.754 299.399 305.597 298.273 309.33C298.488 309.58 298.647 309.873 298.739 310.189C299.149 310.289 299.527 310.49 299.839 310.773C313.883 323.334 307.78 345.293 321.335 358.378C328.926 365.475 338.389 370.256 348.611 372.159C334.781 365.965 321.8 355.862 318.348 342.096Z" fill="#029FA0"/>
<path d="M207.799 355.67C195.749 363.359 181.048 364.485 166.514 363.259C172.234 377.839 180.012 393.306 176.475 409.254C173.919 420.717 168.593 431.38 165.297 442.485C173.656 444.656 180.643 449.32 186.96 455.01C195.618 429.711 211.824 407.143 218.189 381.057C216.603 379.621 215.174 378.022 213.925 376.285C209.829 370.197 207.692 363.005 207.799 355.67Z" fill="#E5E9FF"/>
<path d="M219.644 465.444C218.727 470.054 218.671 474.793 219.477 479.424C225.89 480.123 233.617 482.633 239.504 480.76C240.452 480.351 241.219 479.614 241.666 478.685C241.666 478.625 241.547 478.585 241.499 478.53C235.36 472.051 228.387 467.519 219.644 465.444Z" fill="#805F75"/>
<path d="M382.908 371.809C339.032 363.889 359.68 305.011 357.985 276.265C356.91 258.076 349.486 236.414 330.279 229.138C310.204 221.527 285.018 234.131 279.345 254.003C268.884 248.72 256.296 248.445 244.365 249.609C228.101 251.196 211.381 254.118 195.856 247.129C194.316 246.429 192.834 245.607 191.426 244.671C201.959 243.264 209.267 237.514 214.653 228.094C217.496 223.108 219.74 217.753 223.466 213.28C225.755 210.519 228.77 208.454 232.173 207.316H232.28C235.561 206.259 238.996 205.759 242.443 205.837C245.309 205.837 246.097 201.364 243.136 200.923C232.388 199.336 221.974 196.152 215.489 187.218C209.315 178.678 207.13 167.489 204.156 157.659C200.777 146.411 198.125 136.189 188.631 128.125C183.952 124.319 178.559 121.483 172.769 119.784C170.906 119.211 169.019 118.758 167.144 118.317C164.945 94.9381 161.256 71.8692 160.345 48.3588C159.964 38.5664 159.319 28.5943 159.82 18.7999C160.095 13.5632 161.599 5.15383 157.097 1.12443C153.515 -2.08412 150.421 2.31677 149.407 5.23971C146.218 14.427 145.656 25.2309 144.152 34.7737C140.461 58.1882 137.918 81.7465 135.027 105.257C113.208 97.9809 72.9271 96.49 63.5409 121.265C59.0868 133.001 69.2498 145.311 79.2569 150.763C88.3552 155.713 106.199 160.079 105.661 172.365V173.093C105.264 176.042 104.418 178.914 103.153 181.609C100.502 188.933 94.531 195.159 89.5869 201.087C83.0902 208.961 77.5829 217.6 73.1881 226.811C71.7313 229.829 70.4296 232.93 69.2228 236.091C69.1676 235.99 69.1037 235.894 69.0319 235.804C60.9114 225.976 50.0675 218.728 36.895 217.758C24.3074 216.839 12.0997 224.915 5.98787 235.077C0.00201308 244.966 -0.197949 257.892 0.0739995 268.988C0.225952 279.676 1.23634 290.334 3.09542 300.86C5.8539 315.448 15.5271 344.051 36.3431 338.696C44.7865 336.537 48.8347 329.153 49.1806 321.46C49.5401 321.011 49.736 320.454 49.736 319.879C49.736 319.305 49.5401 318.747 49.1806 318.299C48.5118 309.568 43.9816 302.232 37.2379 296.697C39.4313 290.904 40.9618 284.882 41.8 278.745C44.8335 286.641 48.5358 294.251 54.0767 300.692H53.9917C53.9917 300.692 54.2547 300.992 54.6916 301.455C54.8466 301.634 55.0145 301.813 55.1815 301.981C55.6474 302.47 56.2083 303.042 56.8292 303.65C57.0681 303.877 57.2711 304.116 57.5101 304.342L57.701 304.485C58.3339 305.084 59.0148 305.677 59.6596 306.191C61.1404 316.484 64.8427 326.278 72.3902 334.234C75.4716 337.49 94.1491 347.14 100.407 347.545C101.53 359.529 102.127 371.497 100.252 383.595C97.5294 401.118 97.0155 417.817 100.825 435.232C102.783 444.177 103.762 453.306 105.888 462.213C107.548 469.226 110.366 477.592 117.902 480.511C125.927 483.623 135.098 475.859 137.81 469.31C142.037 459.064 137.296 445.537 134.477 435.542C131.145 423.721 128.828 413.737 133.415 401.798C137.774 390.479 146.551 380.984 153.911 371.369C156.096 368.494 158.126 365.572 159.966 362.581L160.849 362.688C160.882 362.884 160.934 363.075 161.004 363.26C167.477 380.115 175.754 396.254 169.687 414.443C166.498 423.986 162.342 433.325 159.727 442.964C159.335 443.519 159.161 444.198 159.237 444.872C157.641 450.93 157.034 457.205 157.437 463.456C157.453 464.007 157.649 464.538 157.993 464.968C158.338 465.398 158.813 465.705 159.348 465.842C168.221 467.548 177.094 469.158 186.087 470.1C186.649 470.112 187.199 469.939 187.652 469.607C188.105 469.275 188.437 468.803 188.594 468.264C195.222 438.742 214.867 413.896 222.642 384.827C228.41 389.432 234.022 393.606 234.691 402.577C235.791 417.117 226.953 431.764 221.256 444.67C215.957 456.706 211.702 469.336 214.819 482.434C214.995 482.963 215.335 483.422 215.791 483.744C216.246 484.066 216.793 484.234 217.351 484.223C225.185 484.474 233.091 487.027 240.937 485.548C247.673 484.283 249.726 471.592 251.494 466.666C255.399 455.74 263.52 446.031 268.87 435.653C273.069 427.53 275.808 418.954 278.424 410.282C282.508 397.042 295.753 350.249 270.725 353.851C280.375 341.683 290.861 328.897 296.497 314.548C304.032 321.561 304.856 332.738 307.078 342.066C309.285 351.814 314.921 360.449 322.96 366.399C339.457 379.031 362.991 380.712 382.923 376.574C385.357 376.115 385.441 372.273 382.908 371.809ZM284.038 256.524C286.88 244.81 297.09 236.592 308.699 233.061C320.308 229.53 331.975 233.479 340.093 241.864C353.875 256.094 353.875 278.578 352.036 296.649C349.936 317.356 345.886 347.438 359.702 364.484C348.585 358.031 339.555 349.657 336.116 336.501C332.474 322.533 335.116 307.11 334.575 292.832C334.157 282.228 333.083 269.621 325.165 261.476C315.867 251.862 300.552 257.515 290.365 262.574C289.816 261.954 289.254 261.382 288.665 260.749C287.213 259.288 285.635 257.959 283.948 256.776C283.978 256.693 284.014 256.608 284.038 256.524ZM214.713 217.161C207.858 229.09 203.129 239.741 186.911 240.04C186.592 240.04 186.276 240.101 185.98 240.218C181.311 235.309 177.888 229.354 175.995 222.851C173.972 215.875 172.966 208.644 173.01 201.381C186.636 214.574 204.504 209.397 222.153 207.894C219.179 210.549 216.665 213.677 214.713 217.15V217.161ZM209.196 186.638C210.462 188.906 211.937 191.05 213.603 193.043C217.527 197.47 222.568 200.766 228.201 202.586C209.093 203.111 188.182 212.128 174.011 194.963C173.778 194.672 173.479 194.439 173.139 194.283C173.206 192.645 173.289 191.023 173.39 189.417C173.677 184.884 174.334 180.352 175.038 175.836C183.947 183.78 196.434 186.571 208.631 186.738C208.825 186.721 209.017 186.685 209.204 186.631L209.196 186.638ZM167.604 123.586C175.011 125.191 181.855 128.742 187.428 133.872C196.863 142.66 198.475 156.821 201.974 168.38C203.264 172.889 204.831 177.315 206.667 181.632C195.369 181.226 183.331 178.303 175.986 169.584C176.786 164.711 177.261 159.789 177.407 154.853C177.598 142.15 172.14 131.286 163.722 122.648L167.604 123.586ZM147.708 45.7564C149.101 36.0153 150.693 26.3018 152.485 16.6159C153.023 13.646 153.476 10.6522 154.109 7.65835C155.302 2.27882 154.766 8.77979 154.85 11.1175C155.279 25.2879 154.921 39.4582 155.398 53.6645C152.774 52.3387 149.827 51.7846 146.9 52.0667C147.155 49.9666 147.406 47.8555 147.705 45.7554L147.708 45.7564ZM146.174 57.1946C149.602 56.6343 153.985 57.1107 155.214 60.5229C155.337 60.8578 155.523 61.1657 155.763 61.4297C156.205 68.9083 156.957 76.3639 157.863 83.7986C153.648 80.2206 148.751 78.0616 143.306 79.7432C144.232 72.2257 145.188 64.7094 146.174 57.1946ZM140.205 105.813C141.001 99.0458 141.797 92.2865 142.594 85.5352L142.761 85.4633C149.318 81.6686 154.453 87.0022 158.489 91.6417C158.596 91.7648 158.716 91.8766 158.847 91.9752C159.886 100.325 160.972 108.674 161.784 117.024C158.227 116.231 154.836 114.822 151.765 112.861C151.413 112.613 151.001 112.465 150.571 112.432C147.107 110.327 143.481 108.5 139.727 106.968C139.963 106.624 140.111 106.226 140.157 105.811L140.205 105.813ZM29.1415 334.163C25.7135 333.354 22.6664 331.396 20.5071 328.617C26.8719 323.965 35.9482 320.982 44.0096 322.009C43.2568 329.321 37.8358 335.846 29.0695 334.164L29.1415 334.163ZM58.9968 287.537C58.7777 291.183 58.7496 294.838 58.9128 298.486C50.6144 289.493 46.6481 277.506 42.7789 266.173C42.7076 265.862 42.5747 265.569 42.388 265.311C42.2014 265.052 41.9647 264.833 41.6919 264.668C41.4192 264.502 41.116 264.392 40.8002 264.346C40.4844 264.299 40.1625 264.316 39.8534 264.396C39.2525 264.514 38.705 264.821 38.2905 265.271C37.876 265.722 37.6162 266.292 37.5489 266.9C37.3945 277.071 35.425 287.133 31.733 296.613C31.5788 296.853 31.4796 297.123 31.4424 297.406C31.4052 297.688 31.4311 297.975 31.518 298.247C31.5996 298.503 31.7314 298.74 31.9056 298.945C32.0798 299.149 32.293 299.317 32.5328 299.439C38.5637 304.103 42.3489 309.518 43.6627 316.902C34.5264 316.067 24.7823 319.288 17.4737 324.5C16.162 322.335 14.9662 320.102 13.8914 317.81C10.5396 310.622 8.35083 302.948 7.4066 295.075C5.26901 277.624 2.47454 257.792 8.86332 240.886C12.7806 230.581 23.9604 223.149 35.1363 222.72C47.377 222.242 58.0889 230.58 65.2306 239.276C65.4998 239.634 65.877 239.897 66.3069 240.026C66.7368 240.155 67.1967 240.143 67.6191 239.992C62.4841 255.295 59.9286 271.773 58.9978 287.537H58.9968ZM126.59 474.377C122.064 477.001 118.064 476.119 115.221 471.991C113.858 469.968 112.769 467.774 111.981 465.467C119.022 463.774 126.379 463.901 133.358 465.836C132.876 467.647 132.026 469.34 130.861 470.81C129.696 472.279 128.241 473.493 126.586 474.376L126.59 474.377ZM184.092 464.834C176.855 463.988 169.702 462.711 162.596 461.339C162.489 456.625 162.999 451.918 164.113 447.336C172.377 449.543 179.005 454.337 185.167 460.182C185.239 460.182 185.31 460.282 185.367 460.337C184.841 461.828 184.411 463.319 184.041 464.83L184.092 464.834ZM187.017 455.006C180.7 449.314 173.726 444.652 165.355 442.481C168.654 431.377 173.977 420.712 176.532 409.25C180.115 393.302 172.293 377.831 166.572 363.255C181.107 364.448 195.807 363.362 207.856 355.666C207.76 362.983 209.897 370.156 213.983 376.229C215.232 377.966 216.661 379.565 218.246 381.001C211.834 407.136 195.628 429.703 186.969 454.998L187.017 455.006ZM239.563 480.758C233.675 482.631 225.949 480.126 219.536 479.422C218.73 474.791 218.786 470.052 219.703 465.442C228.444 467.47 235.419 472.049 241.558 478.562C241.618 478.609 241.673 478.661 241.725 478.717C241.256 479.644 240.467 480.369 239.503 480.757L239.563 480.758ZM295.478 295.063C294.905 318.131 277.433 337.134 263.723 354.619C263.542 354.823 263.405 355.061 263.321 355.32C263.237 355.579 263.207 355.852 263.233 356.122C260.593 357.553 261.943 361.991 264.933 360.798C269.089 359.128 275.442 356.813 278.666 361.215C281.496 365.056 281.054 370.889 280.852 375.326C280.171 387.325 276.492 399.182 272.946 410.693C270.707 418.409 267.848 425.932 264.396 433.188C259.619 442.862 252.764 451.582 248.119 461.302C246.74 464.46 245.544 467.694 244.536 470.989C244.321 471.597 244.083 472.492 243.784 473.485C237.538 467.07 229.58 462.582 220.854 460.555C223.016 453.599 225.711 446.82 228.915 440.277C234.158 428.743 239.532 417.078 239.974 404.302C240.332 393.917 234.851 387.257 226.719 381.257C225.889 380.647 225.092 379.994 224.33 379.301H224.23C223.53 378.776 220.421 375.329 220.421 375.329C216.854 371.044 214.467 365.905 213.494 360.418C213.063 358.652 212.906 356.829 213.028 355.015V353.217C213.04 352.715 213.08 352.213 213.147 351.714C213.219 351.714 213.147 351.115 213.266 351.07C213.476 349.581 213.784 348.107 214.186 346.658C214.186 346.419 214.329 346.347 214.246 346.3L214.346 345.954C214.823 344.375 215.414 342.832 216.114 341.338C217.5 338.428 213.008 335.874 211.624 338.809C210.094 342.058 209.021 345.502 208.435 349.043C195.705 359.289 178.699 359.838 162.625 357.906C167.402 348.65 169.898 338.738 167.772 327.74C167.151 324.579 162.147 325.926 162.744 329.076C167.772 355.079 143.338 372.875 131.694 393.486C126.463 402.791 123.995 413.359 126.021 423.831C128.41 435.927 133.545 447.366 133.974 459.794V460.772C126.306 458.81 118.271 458.761 110.579 460.629C109.385 455.607 108.895 450.324 108.19 445.65C106.053 430.978 102.363 417.226 103.138 402.21C103.604 393.038 105.67 384.044 106.482 374.919C107.294 365.795 106.601 356.383 105.682 347.187C105.013 340.626 104.201 334.066 103.616 327.529C103.316 324.345 98.1113 324.321 98.3973 327.529C98.8512 332.491 99.3881 337.453 99.902 342.391C92.5334 341.293 78.764 333.087 77.7972 332.265C73.4622 328.517 70.0812 323.793 67.9331 318.484C60.9944 301.141 64.0998 280.314 67.5272 262.561C70.9545 244.809 76.6864 228.268 86.9334 212.976C94.648 201.477 108.262 191.506 110.09 177.336C110.341 176.262 110.317 176.31 110.46 175.606C112.467 165.395 106.245 158.799 97.5384 153.921C86.3846 147.659 73.714 144.892 68.7579 131.938C62.5481 115.835 84.092 108.321 96.5596 106.436C109.696 104.444 123.465 106.436 135.862 110.802C148.02 115.096 159.078 122.825 165.98 133.466C173.337 144.75 172.357 156.641 170.495 169.154C170.304 169.521 170.246 169.942 170.328 170.346C167.199 190.791 165.109 213.455 174.364 232.742C184.037 253.02 207.206 257.994 228.438 256.371C245.587 255.047 263.167 250.407 278.929 259.615C291.862 267.142 295.899 281.348 295.433 295.029C295.409 295.053 295.421 295.053 295.421 295.065L295.478 295.063ZM321.381 358.375C307.862 345.254 313.964 323.331 299.885 310.77C299.573 310.487 299.195 310.286 298.785 310.186C298.693 309.87 298.534 309.577 298.319 309.327C299.445 305.594 300.169 301.751 300.481 297.864C317.595 303.518 314.919 328.269 318.394 342.093C321.87 355.917 334.827 365.949 348.645 372.151C338.406 370.257 328.925 365.475 321.321 358.37L321.381 358.375ZM333.43 356.144C325.787 349.429 323.196 341.581 321.775 332.098C319.565 317.283 318.765 297.423 300.709 292.675C300.709 283.335 298.678 274.342 293.543 266.637C304.685 261.209 318.622 257.25 325.226 270.394C330.552 280.999 329.692 294.761 329.549 306.179C329.382 319.825 328.486 333.446 334.159 346.317C339.473 358.352 351.056 366.011 362.821 371.855C351.954 368.877 341.892 363.51 333.372 356.145L333.43 356.144Z" fill="black"/>
<path d="M132.344 123.992C131.239 124.034 130.171 124.4 129.273 125.043C128.375 125.687 127.686 126.58 127.292 127.612C126.898 128.644 126.816 129.768 127.058 130.846C127.299 131.924 127.852 132.907 128.648 133.673C129.444 134.439 130.449 134.954 131.536 135.155C132.623 135.355 133.745 135.232 134.763 134.8C135.78 134.368 136.648 133.647 137.259 132.726C137.869 131.806 138.195 130.726 138.196 129.622C138.164 128.101 137.531 126.655 136.434 125.599C135.337 124.544 133.867 123.966 132.344 123.992Z" fill="black"/>
<path d="M295.407 295.028C295.873 281.347 291.824 267.141 278.903 259.614C263.139 250.454 245.56 255.046 228.413 256.37C207.18 257.992 184.011 252.983 174.338 232.741C165.107 213.454 167.196 190.79 170.326 170.297C170.244 169.893 170.303 169.472 170.493 169.105C172.355 156.593 173.335 144.7 165.978 133.417C159.08 122.812 148.065 115.083 135.86 110.753C123.463 106.387 109.706 104.396 96.5577 106.387C87.4344 107.77 73.4951 112.147 69.0879 120.7C80.0388 120.092 105.309 119.972 126.566 129.252C126.717 127.783 127.419 126.426 128.531 125.453C129.643 124.48 131.083 123.963 132.561 124.007C134.039 124.051 135.445 124.652 136.497 125.689C137.55 126.726 138.17 128.123 138.234 129.598C138.231 130.49 138.012 131.368 137.596 132.157C137.18 132.946 136.58 133.623 135.845 134.131C152.791 144.783 164.674 163.45 159.599 195.945C145.901 283.616 246.037 272.893 262.147 272.893C278.257 272.893 290.056 311.766 273.945 339.117C272.921 340.774 272.174 342.587 271.735 344.485C283.427 329.753 295.011 313.71 295.477 294.995L295.407 295.028Z" fill="#E5E9FF"/>
<path d="M158.835 91.9772C158.704 91.8786 158.584 91.7668 158.477 91.6437C156.088 88.8406 153.21 85.8108 149.902 84.6654L149.115 111.575C149.593 111.85 150.058 112.111 150.523 112.398C150.953 112.431 151.365 112.579 151.717 112.827C153.69 114.123 155.827 115.15 158.071 115.881L161.653 116.644C160.951 108.402 159.886 100.196 158.835 91.9772Z" fill="white"/>
<path d="M150.737 57.1956L150.08 79.5645C152.967 80.3541 155.632 81.7991 157.867 83.7866C156.983 76.3559 156.207 68.9003 155.767 61.4177C155.527 61.1538 155.341 60.8458 155.218 60.511C154.842 59.6048 154.226 58.8177 153.437 58.2337C152.648 57.6498 151.715 57.291 150.737 57.1956Z" fill="white"/>
<path d="M154.843 11.1175C154.759 8.73185 155.261 2.27881 154.102 7.65834C153.469 10.6282 153.015 13.6221 152.478 16.6159C152.239 17.8082 152.048 19.1204 151.821 20.3617L150.889 52.2174C152.459 52.4192 153.982 52.8923 155.389 53.6155C154.918 39.4582 155.253 25.2879 154.843 11.1175Z" fill="white"/>
<path d="M65.2905 239.288C58.1249 230.592 47.377 222.254 35.1963 222.732C23.9584 223.161 12.7805 230.592 8.92328 240.898C3.90724 254.174 4.55212 269.259 6.10482 283.601C7.60953 273.749 14.8342 234.696 34.7664 234.887C53.6348 235.113 63.6669 240.457 67.0102 242.306C67.2612 241.544 67.4881 240.768 67.7511 240.005C67.3193 240.173 66.8438 240.195 66.3987 240.065C65.9536 239.936 65.564 239.663 65.2905 239.289V239.288Z" fill="#E5E9FF"/>
<path d="M422.225 92.933C422.077 93.3246 421.835 93.6735 421.519 93.9484C421.203 94.2233 420.824 94.4155 420.415 94.5078L412.996 96.2893L418.916 101.092C419.242 101.358 419.5 101.699 419.666 102.085C419.833 102.472 419.904 102.893 419.873 103.313L419.278 110.93L425.689 106.773C426.041 106.544 426.444 106.406 426.863 106.37C427.281 106.334 427.702 106.401 428.088 106.566L435.146 109.484L433.186 102.099C433.078 101.693 433.071 101.267 433.166 100.857C433.261 100.448 433.454 100.068 433.728 99.7495L438.691 93.9396L431.065 93.5271C430.645 93.5029 430.237 93.3776 429.877 93.1618C429.516 92.946 429.213 92.6461 428.993 92.2878L425.016 85.7809L422.225 92.933Z" fill="#FED710"/>
<path d="M465.317 115.525C465.027 115.823 464.668 116.048 464.272 116.178C463.876 116.309 463.454 116.341 463.043 116.274L458.597 115.525L460.69 119.501C460.881 119.872 460.98 120.283 460.98 120.699C460.98 121.116 460.881 121.527 460.69 121.898L458.597 125.874L463.043 125.105C463.458 125.031 463.885 125.061 464.287 125.192C464.688 125.322 465.05 125.55 465.342 125.854L468.498 129.08L469.093 124.639C469.15 124.224 469.31 123.829 469.558 123.491C469.806 123.153 470.135 122.882 470.514 122.703L474.547 120.711L470.513 118.726C470.139 118.541 469.814 118.268 469.566 117.931C469.319 117.594 469.156 117.203 469.092 116.79L468.448 112.323L465.317 115.525Z" fill="#FED710"/>
<path d="M424.163 146.122C423.923 146.466 423.602 146.745 423.227 146.935C422.853 147.124 422.437 147.217 422.018 147.207L417.648 147.155L420.26 150.64C420.511 150.975 420.677 151.367 420.745 151.78C420.812 152.194 420.779 152.618 420.648 153.016L419.248 157.147L423.384 155.727C423.781 155.591 424.204 155.553 424.618 155.616C425.032 155.679 425.425 155.841 425.763 156.088L429.278 158.671L429.2 154.307C429.196 153.889 429.293 153.476 429.483 153.104C429.673 152.731 429.949 152.41 430.29 152.168L433.831 149.633L429.669 148.342C429.269 148.216 428.905 147.995 428.608 147.698C428.311 147.402 428.09 147.038 427.963 146.638L426.645 142.481L424.163 146.122Z" fill="#FED710"/>
<path d="M422.044 79.0932L417.907 89.8342L406.71 92.5195C406.241 92.6307 405.813 92.8713 405.475 93.2136C405.137 93.556 404.902 93.9865 404.797 94.4558C404.754 94.642 404.737 94.8332 404.745 95.024C404.745 95.4097 404.83 95.7905 404.996 96.1389C405.161 96.4873 405.402 96.7945 405.702 97.0382L414.646 104.293L413.746 115.757C413.711 116.236 413.808 116.716 414.027 117.144C414.246 117.572 414.578 117.931 414.987 118.184C415.402 118.435 415.88 118.564 416.365 118.555C416.85 118.546 417.323 118.399 417.727 118.132L427.396 111.884L438.02 116.299C438.465 116.483 438.952 116.539 439.427 116.461C439.903 116.383 440.347 116.174 440.709 115.857C441.072 115.541 441.339 115.13 441.48 114.67C441.621 114.21 441.631 113.72 441.509 113.255L438.536 102.15L446.033 93.3973C446.348 93.0341 446.554 92.5893 446.628 92.1143C446.701 91.6392 446.638 91.1531 446.447 90.712C446.254 90.2699 445.941 89.8906 445.544 89.6169C445.146 89.3431 444.68 89.186 444.197 89.1632L432.694 88.543L426.695 78.7317C426.445 78.3221 426.084 77.9911 425.654 77.7765C425.225 77.562 424.743 77.4725 424.265 77.5184C423.785 77.5488 423.323 77.7122 422.93 77.9904C422.538 78.2686 422.231 78.6504 422.044 79.0932ZM431.042 93.578L438.668 93.9915L433.705 99.8014C433.436 100.123 433.246 100.503 433.152 100.911C433.058 101.32 433.061 101.744 433.162 102.151L435.127 109.536L428.066 106.564C427.679 106.406 427.259 106.343 426.842 106.379C426.425 106.415 426.022 106.549 425.667 106.771L419.256 110.928L419.851 103.312C419.887 102.891 419.819 102.468 419.652 102.081C419.485 101.693 419.225 101.353 418.894 101.091L412.995 96.3142L420.415 94.5327C420.82 94.4315 421.194 94.236 421.509 93.9623C421.824 93.6886 422.069 93.3444 422.225 92.9579L424.961 85.8318L428.942 92.3388C429.169 92.6964 429.477 92.9954 429.842 93.2115C430.206 93.4275 430.617 93.5545 431.04 93.582L431.042 93.578Z" fill="#0A0D23"/>
<path d="M462.552 110.955L454.279 109.535C453.803 109.456 453.314 109.511 452.866 109.693C452.419 109.876 452.031 110.178 451.746 110.567C451.42 111.008 451.247 111.543 451.255 112.09C451.26 112.511 451.357 112.925 451.539 113.304L455.438 120.714L451.539 128.125C451.31 128.549 451.208 129.03 451.244 129.511C451.281 129.992 451.455 130.452 451.746 130.836C452.035 131.222 452.423 131.522 452.869 131.705C453.315 131.888 453.803 131.946 454.279 131.874L462.552 130.454L468.394 136.446C468.733 136.79 469.163 137.033 469.633 137.147C470.103 137.261 470.596 137.241 471.056 137.091C471.519 136.946 471.93 136.672 472.241 136.302C472.553 135.931 472.751 135.479 472.814 135L474.029 126.711L481.552 122.986C481.987 122.772 482.353 122.442 482.608 122.031C482.864 121.62 483 121.146 483 120.662C483 120.179 482.864 119.705 482.608 119.294C482.353 118.883 481.987 118.552 481.552 118.339L474.03 114.622L472.815 106.333C472.748 105.855 472.547 105.406 472.236 105.036C471.926 104.666 471.517 104.391 471.057 104.242C470.597 104.093 470.105 104.074 469.635 104.188C469.164 104.302 468.735 104.544 468.395 104.887L462.552 110.955ZM470.514 118.701L474.547 120.689L470.513 122.678C470.139 122.863 469.814 123.136 469.567 123.473C469.32 123.81 469.157 124.201 469.093 124.614L468.446 129.078L465.292 125.85C464.998 125.549 464.635 125.324 464.235 125.194C463.834 125.063 463.408 125.032 462.993 125.101L458.545 125.882L460.638 121.906C460.829 121.535 460.928 121.124 460.928 120.707C460.928 120.291 460.829 119.88 460.638 119.509L458.545 115.526L462.991 116.275C463.402 116.35 463.827 116.322 464.224 116.191C464.622 116.06 464.98 115.831 465.265 115.526L468.42 112.301L469.066 116.768C469.142 117.18 469.312 117.568 469.564 117.904C469.815 118.239 470.14 118.512 470.514 118.701Z" fill="#0A0D23"/>
<path d="M427.964 134.245C427.488 134.168 427.001 134.227 426.558 134.414C426.114 134.602 425.733 134.91 425.456 135.303L420.725 142.042L412.478 141.964C411.997 141.961 411.524 142.093 411.113 142.344C410.702 142.594 410.369 142.955 410.152 143.384C409.931 143.812 409.836 144.293 409.877 144.773C409.918 145.253 410.094 145.711 410.385 146.095L415.319 152.68L412.711 160.476C412.556 160.933 412.532 161.424 412.642 161.894C412.751 162.364 412.99 162.794 413.332 163.136C413.674 163.477 414.104 163.716 414.575 163.825C415.045 163.935 415.537 163.911 415.995 163.756L423.802 161.096L430.416 166.003C430.802 166.293 431.262 166.468 431.743 166.509C432.224 166.549 432.707 166.453 433.136 166.232C433.565 166.011 433.923 165.674 434.169 165.259C434.415 164.844 434.539 164.368 434.526 163.886L434.397 155.65L441.122 150.872C441.514 150.595 441.821 150.213 442.008 149.771C442.196 149.328 442.256 148.843 442.182 148.368C442.104 147.893 441.896 147.449 441.581 147.084C441.267 146.72 440.857 146.449 440.398 146.303L432.516 143.875L430.06 136.026C429.907 135.566 429.631 135.156 429.262 134.842C428.892 134.528 428.443 134.321 427.964 134.245ZM429.695 148.42L433.857 149.711L430.316 152.242C429.976 152.485 429.699 152.807 429.51 153.18C429.321 153.553 429.225 153.966 429.23 154.385L429.282 158.723L425.767 156.14C425.432 155.887 425.039 155.722 424.623 155.659C424.208 155.596 423.784 155.637 423.388 155.779L419.252 157.199L420.652 153.067C420.783 152.669 420.817 152.246 420.749 151.832C420.681 151.419 420.515 151.027 420.264 150.692L417.653 147.206L422.023 147.257C422.44 147.257 422.852 147.159 423.225 146.97C423.597 146.782 423.921 146.509 424.168 146.173L426.671 142.611L427.99 146.768C428.122 147.159 428.346 147.513 428.642 147.8C428.939 148.087 429.3 148.3 429.695 148.42Z" fill="#0A0D23"/>
<path d="M345.047 202.54C345.44 202.687 345.789 202.93 346.065 203.245C346.34 203.561 346.532 203.94 346.625 204.348L348.41 211.764L353.222 205.847C353.489 205.521 353.83 205.264 354.217 205.098C354.604 204.932 355.026 204.861 355.446 204.891L363.078 205.491L358.913 199.082C358.683 198.73 358.544 198.326 358.508 197.907C358.472 197.488 358.54 197.066 358.706 196.68L361.629 189.626L354.231 191.589C353.824 191.696 353.396 191.703 352.986 191.609C352.576 191.514 352.195 191.321 351.876 191.047L346.055 186.086L345.641 193.708C345.616 194.127 345.491 194.534 345.274 194.894C345.058 195.254 344.758 195.556 344.399 195.775L337.881 199.755L345.047 202.54Z" fill="#FED710"/>
<path d="M367.683 159.467C367.982 159.758 368.207 160.116 368.338 160.512C368.468 160.908 368.501 161.33 368.433 161.741L367.683 166.185L371.667 164.088C372.039 163.897 372.452 163.797 372.87 163.797C373.288 163.797 373.701 163.897 374.073 164.088L378.057 166.185L377.281 161.741C377.207 161.326 377.237 160.9 377.368 160.499C377.499 160.098 377.727 159.736 378.031 159.445L381.264 156.292L376.815 155.693C376.399 155.636 376.004 155.476 375.665 155.228C375.326 154.979 375.054 154.651 374.875 154.272L372.883 150.241L370.891 154.272C370.705 154.646 370.432 154.971 370.094 155.218C369.757 155.466 369.364 155.628 368.951 155.693L364.476 156.339L367.683 159.467Z" fill="#FED710"/>
<path d="M398.338 200.602C398.683 200.842 398.963 201.163 399.153 201.538C399.342 201.912 399.436 202.328 399.425 202.747L399.373 207.114L402.865 204.505C403.202 204.254 403.593 204.088 404.008 204.021C404.422 203.953 404.846 203.986 405.245 204.117L409.384 205.516L407.961 201.381C407.825 200.985 407.787 200.562 407.85 200.149C407.913 199.735 408.076 199.342 408.323 199.005L410.91 195.49L406.538 195.568C406.119 195.574 405.704 195.478 405.33 195.289C404.956 195.1 404.634 194.823 404.39 194.483L401.854 190.943L400.561 195.103C400.434 195.503 400.213 195.867 399.915 196.164C399.618 196.461 399.254 196.682 398.853 196.809L394.688 198.127L398.338 200.602Z" fill="#FED710"/>
<path d="M331.182 202.721L341.944 206.856L344.634 218.04C344.746 218.509 344.987 218.936 345.33 219.274C345.673 219.613 346.105 219.848 346.575 219.953C346.761 219.995 346.953 220.013 347.144 220.004C347.53 220.005 347.912 219.919 348.261 219.754C348.61 219.589 348.917 219.348 349.162 219.049L356.431 210.109L367.917 211.014C368.397 211.049 368.878 210.952 369.306 210.733C369.735 210.515 370.096 210.183 370.348 209.774C370.601 209.359 370.73 208.881 370.72 208.397C370.711 207.912 370.564 207.439 370.297 207.034L364.036 197.371L368.459 186.752C368.644 186.307 368.7 185.819 368.622 185.343C368.544 184.868 368.334 184.424 368.017 184.061C367.699 183.698 367.287 183.431 366.826 183.29C366.364 183.15 365.873 183.14 365.406 183.263L354.283 186.235L345.513 178.746C345.149 178.431 344.704 178.225 344.228 178.152C343.752 178.078 343.265 178.141 342.823 178.332C342.38 178.525 342 178.838 341.726 179.235C341.452 179.632 341.294 180.098 341.271 180.58L340.65 192.078L330.82 198.07C330.41 198.32 330.078 198.68 329.863 199.11C329.648 199.539 329.558 200.021 329.604 200.499C329.634 200.979 329.798 201.441 330.077 201.834C330.355 202.227 330.738 202.534 331.182 202.721ZM345.694 193.734L346.108 186.112L351.929 191.073C352.251 191.342 352.632 191.531 353.041 191.626C353.45 191.72 353.876 191.716 354.284 191.615L361.682 189.652L358.707 196.706C358.548 197.094 358.484 197.514 358.52 197.932C358.556 198.35 358.691 198.753 358.914 199.108L363.079 205.517L355.447 204.917C355.026 204.881 354.603 204.949 354.215 205.116C353.827 205.283 353.486 205.543 353.223 205.873L348.437 211.765L346.652 204.349C346.551 203.945 346.355 203.57 346.081 203.256C345.806 202.941 345.462 202.696 345.074 202.541L337.935 199.802L344.453 195.822C344.811 195.595 345.109 195.287 345.325 194.924C345.541 194.56 345.667 194.151 345.695 193.729L345.694 193.734Z" fill="#0A0D23"/>
<path d="M363.105 162.232L361.682 170.5C361.603 170.977 361.658 171.466 361.841 171.913C362.024 172.36 362.327 172.747 362.717 173.033C363.158 173.36 363.695 173.532 364.244 173.524C364.665 173.519 365.08 173.422 365.459 173.239L372.884 169.338L380.309 173.239C380.734 173.468 381.216 173.571 381.697 173.534C382.179 173.497 382.64 173.323 383.025 173.033C383.411 172.743 383.711 172.355 383.893 171.909C384.075 171.463 384.133 170.976 384.06 170.5L382.637 162.232L388.636 156.392C388.981 156.052 389.225 155.623 389.339 155.153C389.454 154.683 389.434 154.19 389.283 153.73C389.138 153.268 388.863 152.857 388.49 152.545C388.118 152.234 387.665 152.036 387.183 151.974L378.879 150.76L375.154 143.241C374.938 142.808 374.606 142.444 374.195 142.189C373.784 141.935 373.309 141.8 372.826 141.8C372.342 141.8 371.867 141.935 371.456 142.189C371.045 142.444 370.713 142.808 370.497 143.241L366.772 150.76L358.468 151.974C357.988 152.04 357.537 152.24 357.165 152.551C356.794 152.862 356.518 153.27 356.368 153.73C356.219 154.19 356.2 154.683 356.314 155.153C356.428 155.622 356.671 156.051 357.015 156.392L363.105 162.232ZM370.865 154.274L372.857 150.243L374.847 154.277C375.033 154.651 375.306 154.976 375.644 155.223C375.981 155.471 376.374 155.633 376.787 155.698L381.262 156.344L378.029 159.496C377.728 159.791 377.503 160.153 377.372 160.553C377.241 160.953 377.21 161.378 377.279 161.793L378.055 166.237L374.071 164.14C373.699 163.949 373.286 163.849 372.868 163.849C372.45 163.849 372.037 163.949 371.665 164.14L367.681 166.237L368.431 161.793C368.507 161.382 368.478 160.958 368.347 160.561C368.216 160.163 367.987 159.805 367.681 159.519L364.448 156.367L368.923 155.721C369.336 155.646 369.726 155.476 370.063 155.226C370.4 154.975 370.675 154.651 370.865 154.277V154.274Z" fill="#0A0D23"/>
<path d="M386.438 196.804C386.362 197.279 386.421 197.766 386.608 198.209C386.796 198.652 387.105 199.034 387.499 199.31L394.251 204.039L394.173 212.281C394.171 212.762 394.303 213.235 394.554 213.646C394.805 214.056 395.166 214.389 395.596 214.607C396.024 214.828 396.507 214.923 396.987 214.882C397.468 214.841 397.927 214.665 398.312 214.374L404.911 209.439L412.725 212.044C413.183 212.2 413.675 212.224 414.146 212.115C414.617 212.005 415.048 211.766 415.39 211.425C415.732 211.083 415.972 210.653 416.081 210.182C416.191 209.712 416.166 209.22 416.011 208.763L413.346 200.96L418.261 194.345C418.552 193.959 418.728 193.5 418.768 193.019C418.809 192.538 418.713 192.055 418.492 191.626C418.27 191.197 417.932 190.839 417.516 190.593C417.1 190.348 416.623 190.224 416.14 190.237L407.887 190.366L403.101 183.648C402.823 183.256 402.441 182.949 401.997 182.762C401.554 182.575 401.067 182.515 400.592 182.588C400.116 182.666 399.671 182.874 399.305 183.188C398.94 183.503 398.669 183.912 398.522 184.371L396.091 192.252L388.226 194.707C387.764 194.859 387.353 195.135 387.038 195.505C386.723 195.875 386.515 196.324 386.438 196.804ZM400.636 195.072L401.929 190.912L404.465 194.452C404.709 194.792 405.031 195.069 405.405 195.258C405.779 195.447 406.194 195.543 406.613 195.537L410.959 195.485L408.372 199C408.119 199.335 407.953 199.727 407.89 200.142C407.827 200.557 407.868 200.981 408.01 201.376L409.433 205.511L405.294 204.113C404.895 203.981 404.471 203.948 404.057 204.015C403.642 204.083 403.251 204.249 402.914 204.5L399.422 207.109L399.474 202.742C399.474 202.325 399.375 201.913 399.186 201.541C398.997 201.168 398.724 200.845 398.387 200.597L394.817 198.091L398.982 196.773C399.374 196.641 399.73 196.418 400.018 196.121C400.307 195.825 400.52 195.464 400.641 195.068L400.636 195.072Z" fill="#0A0D23"/>
</g>
<defs>
<clipPath id="clip0_15_32">
<rect width="483" height="486" fill="white"/>
</clipPath>
</defs>
</svg>
